G75*
%MOIN*%
%OFA0B0*%
%FSLAX25Y25*%
%IPPOS*%
%LPD*%
%AMOC8*
5,1,8,0,0,1.08239X$1,22.5*
%
%ADD10C,0.00000*%
%ADD11R,0.00787X0.00787*%
%ADD12C,0.00400*%
D10*
X0043304Y0053815D02*
X0059052Y0038067D01*
X1027556Y0038067D01*
X1043304Y0053815D01*
X1043304Y0947516D01*
X1027556Y0963264D01*
X0177162Y0963264D01*
X0173225Y0967201D01*
X0173225Y1016020D01*
X0169288Y1019957D01*
X0062989Y1019957D01*
X0059052Y1016020D01*
X0059052Y0963264D01*
X0043304Y0947516D01*
X0043304Y0053815D01*
X0125981Y0077437D02*
X0125985Y0077727D01*
X0125995Y0078017D01*
X0126013Y0078306D01*
X0126038Y0078595D01*
X0126070Y0078883D01*
X0126109Y0079170D01*
X0126155Y0079456D01*
X0126208Y0079741D01*
X0126268Y0080025D01*
X0126335Y0080307D01*
X0126409Y0080587D01*
X0126490Y0080866D01*
X0126577Y0081142D01*
X0126671Y0081416D01*
X0126772Y0081688D01*
X0126880Y0081957D01*
X0126994Y0082223D01*
X0127115Y0082487D01*
X0127242Y0082747D01*
X0127376Y0083005D01*
X0127515Y0083259D01*
X0127661Y0083509D01*
X0127813Y0083756D01*
X0127972Y0083999D01*
X0128136Y0084238D01*
X0128305Y0084473D01*
X0128481Y0084704D01*
X0128662Y0084930D01*
X0128849Y0085152D01*
X0129041Y0085369D01*
X0129238Y0085581D01*
X0129440Y0085789D01*
X0129648Y0085991D01*
X0129860Y0086188D01*
X0130077Y0086380D01*
X0130299Y0086567D01*
X0130525Y0086748D01*
X0130756Y0086924D01*
X0130991Y0087093D01*
X0131230Y0087257D01*
X0131473Y0087416D01*
X0131720Y0087568D01*
X0131970Y0087714D01*
X0132224Y0087853D01*
X0132482Y0087987D01*
X0132742Y0088114D01*
X0133006Y0088235D01*
X0133272Y0088349D01*
X0133541Y0088457D01*
X0133813Y0088558D01*
X0134087Y0088652D01*
X0134363Y0088739D01*
X0134642Y0088820D01*
X0134922Y0088894D01*
X0135204Y0088961D01*
X0135488Y0089021D01*
X0135773Y0089074D01*
X0136059Y0089120D01*
X0136346Y0089159D01*
X0136634Y0089191D01*
X0136923Y0089216D01*
X0137212Y0089234D01*
X0137502Y0089244D01*
X0137792Y0089248D01*
X0138082Y0089244D01*
X0138372Y0089234D01*
X0138661Y0089216D01*
X0138950Y0089191D01*
X0139238Y0089159D01*
X0139525Y0089120D01*
X0139811Y0089074D01*
X0140096Y0089021D01*
X0140380Y0088961D01*
X0140662Y0088894D01*
X0140942Y0088820D01*
X0141221Y0088739D01*
X0141497Y0088652D01*
X0141771Y0088558D01*
X0142043Y0088457D01*
X0142312Y0088349D01*
X0142578Y0088235D01*
X0142842Y0088114D01*
X0143102Y0087987D01*
X0143360Y0087853D01*
X0143614Y0087714D01*
X0143864Y0087568D01*
X0144111Y0087416D01*
X0144354Y0087257D01*
X0144593Y0087093D01*
X0144828Y0086924D01*
X0145059Y0086748D01*
X0145285Y0086567D01*
X0145507Y0086380D01*
X0145724Y0086188D01*
X0145936Y0085991D01*
X0146144Y0085789D01*
X0146346Y0085581D01*
X0146543Y0085369D01*
X0146735Y0085152D01*
X0146922Y0084930D01*
X0147103Y0084704D01*
X0147279Y0084473D01*
X0147448Y0084238D01*
X0147612Y0083999D01*
X0147771Y0083756D01*
X0147923Y0083509D01*
X0148069Y0083259D01*
X0148208Y0083005D01*
X0148342Y0082747D01*
X0148469Y0082487D01*
X0148590Y0082223D01*
X0148704Y0081957D01*
X0148812Y0081688D01*
X0148913Y0081416D01*
X0149007Y0081142D01*
X0149094Y0080866D01*
X0149175Y0080587D01*
X0149249Y0080307D01*
X0149316Y0080025D01*
X0149376Y0079741D01*
X0149429Y0079456D01*
X0149475Y0079170D01*
X0149514Y0078883D01*
X0149546Y0078595D01*
X0149571Y0078306D01*
X0149589Y0078017D01*
X0149599Y0077727D01*
X0149603Y0077437D01*
X0149599Y0077147D01*
X0149589Y0076857D01*
X0149571Y0076568D01*
X0149546Y0076279D01*
X0149514Y0075991D01*
X0149475Y0075704D01*
X0149429Y0075418D01*
X0149376Y0075133D01*
X0149316Y0074849D01*
X0149249Y0074567D01*
X0149175Y0074287D01*
X0149094Y0074008D01*
X0149007Y0073732D01*
X0148913Y0073458D01*
X0148812Y0073186D01*
X0148704Y0072917D01*
X0148590Y0072651D01*
X0148469Y0072387D01*
X0148342Y0072127D01*
X0148208Y0071869D01*
X0148069Y0071615D01*
X0147923Y0071365D01*
X0147771Y0071118D01*
X0147612Y0070875D01*
X0147448Y0070636D01*
X0147279Y0070401D01*
X0147103Y0070170D01*
X0146922Y0069944D01*
X0146735Y0069722D01*
X0146543Y0069505D01*
X0146346Y0069293D01*
X0146144Y0069085D01*
X0145936Y0068883D01*
X0145724Y0068686D01*
X0145507Y0068494D01*
X0145285Y0068307D01*
X0145059Y0068126D01*
X0144828Y0067950D01*
X0144593Y0067781D01*
X0144354Y0067617D01*
X0144111Y0067458D01*
X0143864Y0067306D01*
X0143614Y0067160D01*
X0143360Y0067021D01*
X0143102Y0066887D01*
X0142842Y0066760D01*
X0142578Y0066639D01*
X0142312Y0066525D01*
X0142043Y0066417D01*
X0141771Y0066316D01*
X0141497Y0066222D01*
X0141221Y0066135D01*
X0140942Y0066054D01*
X0140662Y0065980D01*
X0140380Y0065913D01*
X0140096Y0065853D01*
X0139811Y0065800D01*
X0139525Y0065754D01*
X0139238Y0065715D01*
X0138950Y0065683D01*
X0138661Y0065658D01*
X0138372Y0065640D01*
X0138082Y0065630D01*
X0137792Y0065626D01*
X0137502Y0065630D01*
X0137212Y0065640D01*
X0136923Y0065658D01*
X0136634Y0065683D01*
X0136346Y0065715D01*
X0136059Y0065754D01*
X0135773Y0065800D01*
X0135488Y0065853D01*
X0135204Y0065913D01*
X0134922Y0065980D01*
X0134642Y0066054D01*
X0134363Y0066135D01*
X0134087Y0066222D01*
X0133813Y0066316D01*
X0133541Y0066417D01*
X0133272Y0066525D01*
X0133006Y0066639D01*
X0132742Y0066760D01*
X0132482Y0066887D01*
X0132224Y0067021D01*
X0131970Y0067160D01*
X0131720Y0067306D01*
X0131473Y0067458D01*
X0131230Y0067617D01*
X0130991Y0067781D01*
X0130756Y0067950D01*
X0130525Y0068126D01*
X0130299Y0068307D01*
X0130077Y0068494D01*
X0129860Y0068686D01*
X0129648Y0068883D01*
X0129440Y0069085D01*
X0129238Y0069293D01*
X0129041Y0069505D01*
X0128849Y0069722D01*
X0128662Y0069944D01*
X0128481Y0070170D01*
X0128305Y0070401D01*
X0128136Y0070636D01*
X0127972Y0070875D01*
X0127813Y0071118D01*
X0127661Y0071365D01*
X0127515Y0071615D01*
X0127376Y0071869D01*
X0127242Y0072127D01*
X0127115Y0072387D01*
X0126994Y0072651D01*
X0126880Y0072917D01*
X0126772Y0073186D01*
X0126671Y0073458D01*
X0126577Y0073732D01*
X0126490Y0074008D01*
X0126409Y0074287D01*
X0126335Y0074567D01*
X0126268Y0074849D01*
X0126208Y0075133D01*
X0126155Y0075418D01*
X0126109Y0075704D01*
X0126070Y0075991D01*
X0126038Y0076279D01*
X0126013Y0076568D01*
X0125995Y0076857D01*
X0125985Y0077147D01*
X0125981Y0077437D01*
X0131493Y0077437D02*
X0131495Y0077595D01*
X0131501Y0077753D01*
X0131511Y0077911D01*
X0131525Y0078069D01*
X0131543Y0078226D01*
X0131564Y0078383D01*
X0131590Y0078539D01*
X0131620Y0078695D01*
X0131653Y0078850D01*
X0131691Y0079003D01*
X0131732Y0079156D01*
X0131777Y0079308D01*
X0131826Y0079459D01*
X0131879Y0079608D01*
X0131935Y0079756D01*
X0131995Y0079902D01*
X0132059Y0080047D01*
X0132127Y0080190D01*
X0132198Y0080332D01*
X0132272Y0080472D01*
X0132350Y0080609D01*
X0132432Y0080745D01*
X0132516Y0080879D01*
X0132605Y0081010D01*
X0132696Y0081139D01*
X0132791Y0081266D01*
X0132888Y0081391D01*
X0132989Y0081513D01*
X0133093Y0081632D01*
X0133200Y0081749D01*
X0133310Y0081863D01*
X0133423Y0081974D01*
X0133538Y0082083D01*
X0133656Y0082188D01*
X0133777Y0082290D01*
X0133900Y0082390D01*
X0134026Y0082486D01*
X0134154Y0082579D01*
X0134284Y0082669D01*
X0134417Y0082755D01*
X0134552Y0082839D01*
X0134688Y0082918D01*
X0134827Y0082995D01*
X0134968Y0083067D01*
X0135110Y0083137D01*
X0135254Y0083202D01*
X0135400Y0083264D01*
X0135547Y0083322D01*
X0135696Y0083377D01*
X0135846Y0083428D01*
X0135997Y0083475D01*
X0136149Y0083518D01*
X0136302Y0083557D01*
X0136457Y0083593D01*
X0136612Y0083624D01*
X0136768Y0083652D01*
X0136924Y0083676D01*
X0137081Y0083696D01*
X0137239Y0083712D01*
X0137396Y0083724D01*
X0137555Y0083732D01*
X0137713Y0083736D01*
X0137871Y0083736D01*
X0138029Y0083732D01*
X0138188Y0083724D01*
X0138345Y0083712D01*
X0138503Y0083696D01*
X0138660Y0083676D01*
X0138816Y0083652D01*
X0138972Y0083624D01*
X0139127Y0083593D01*
X0139282Y0083557D01*
X0139435Y0083518D01*
X0139587Y0083475D01*
X0139738Y0083428D01*
X0139888Y0083377D01*
X0140037Y0083322D01*
X0140184Y0083264D01*
X0140330Y0083202D01*
X0140474Y0083137D01*
X0140616Y0083067D01*
X0140757Y0082995D01*
X0140896Y0082918D01*
X0141032Y0082839D01*
X0141167Y0082755D01*
X0141300Y0082669D01*
X0141430Y0082579D01*
X0141558Y0082486D01*
X0141684Y0082390D01*
X0141807Y0082290D01*
X0141928Y0082188D01*
X0142046Y0082083D01*
X0142161Y0081974D01*
X0142274Y0081863D01*
X0142384Y0081749D01*
X0142491Y0081632D01*
X0142595Y0081513D01*
X0142696Y0081391D01*
X0142793Y0081266D01*
X0142888Y0081139D01*
X0142979Y0081010D01*
X0143068Y0080879D01*
X0143152Y0080745D01*
X0143234Y0080609D01*
X0143312Y0080472D01*
X0143386Y0080332D01*
X0143457Y0080190D01*
X0143525Y0080047D01*
X0143589Y0079902D01*
X0143649Y0079756D01*
X0143705Y0079608D01*
X0143758Y0079459D01*
X0143807Y0079308D01*
X0143852Y0079156D01*
X0143893Y0079003D01*
X0143931Y0078850D01*
X0143964Y0078695D01*
X0143994Y0078539D01*
X0144020Y0078383D01*
X0144041Y0078226D01*
X0144059Y0078069D01*
X0144073Y0077911D01*
X0144083Y0077753D01*
X0144089Y0077595D01*
X0144091Y0077437D01*
X0144089Y0077279D01*
X0144083Y0077121D01*
X0144073Y0076963D01*
X0144059Y0076805D01*
X0144041Y0076648D01*
X0144020Y0076491D01*
X0143994Y0076335D01*
X0143964Y0076179D01*
X0143931Y0076024D01*
X0143893Y0075871D01*
X0143852Y0075718D01*
X0143807Y0075566D01*
X0143758Y0075415D01*
X0143705Y0075266D01*
X0143649Y0075118D01*
X0143589Y0074972D01*
X0143525Y0074827D01*
X0143457Y0074684D01*
X0143386Y0074542D01*
X0143312Y0074402D01*
X0143234Y0074265D01*
X0143152Y0074129D01*
X0143068Y0073995D01*
X0142979Y0073864D01*
X0142888Y0073735D01*
X0142793Y0073608D01*
X0142696Y0073483D01*
X0142595Y0073361D01*
X0142491Y0073242D01*
X0142384Y0073125D01*
X0142274Y0073011D01*
X0142161Y0072900D01*
X0142046Y0072791D01*
X0141928Y0072686D01*
X0141807Y0072584D01*
X0141684Y0072484D01*
X0141558Y0072388D01*
X0141430Y0072295D01*
X0141300Y0072205D01*
X0141167Y0072119D01*
X0141032Y0072035D01*
X0140896Y0071956D01*
X0140757Y0071879D01*
X0140616Y0071807D01*
X0140474Y0071737D01*
X0140330Y0071672D01*
X0140184Y0071610D01*
X0140037Y0071552D01*
X0139888Y0071497D01*
X0139738Y0071446D01*
X0139587Y0071399D01*
X0139435Y0071356D01*
X0139282Y0071317D01*
X0139127Y0071281D01*
X0138972Y0071250D01*
X0138816Y0071222D01*
X0138660Y0071198D01*
X0138503Y0071178D01*
X0138345Y0071162D01*
X0138188Y0071150D01*
X0138029Y0071142D01*
X0137871Y0071138D01*
X0137713Y0071138D01*
X0137555Y0071142D01*
X0137396Y0071150D01*
X0137239Y0071162D01*
X0137081Y0071178D01*
X0136924Y0071198D01*
X0136768Y0071222D01*
X0136612Y0071250D01*
X0136457Y0071281D01*
X0136302Y0071317D01*
X0136149Y0071356D01*
X0135997Y0071399D01*
X0135846Y0071446D01*
X0135696Y0071497D01*
X0135547Y0071552D01*
X0135400Y0071610D01*
X0135254Y0071672D01*
X0135110Y0071737D01*
X0134968Y0071807D01*
X0134827Y0071879D01*
X0134688Y0071956D01*
X0134552Y0072035D01*
X0134417Y0072119D01*
X0134284Y0072205D01*
X0134154Y0072295D01*
X0134026Y0072388D01*
X0133900Y0072484D01*
X0133777Y0072584D01*
X0133656Y0072686D01*
X0133538Y0072791D01*
X0133423Y0072900D01*
X0133310Y0073011D01*
X0133200Y0073125D01*
X0133093Y0073242D01*
X0132989Y0073361D01*
X0132888Y0073483D01*
X0132791Y0073608D01*
X0132696Y0073735D01*
X0132605Y0073864D01*
X0132516Y0073995D01*
X0132432Y0074129D01*
X0132350Y0074265D01*
X0132272Y0074402D01*
X0132198Y0074542D01*
X0132127Y0074684D01*
X0132059Y0074827D01*
X0131995Y0074972D01*
X0131935Y0075118D01*
X0131879Y0075266D01*
X0131826Y0075415D01*
X0131777Y0075566D01*
X0131732Y0075718D01*
X0131691Y0075871D01*
X0131653Y0076024D01*
X0131620Y0076179D01*
X0131590Y0076335D01*
X0131564Y0076491D01*
X0131543Y0076648D01*
X0131525Y0076805D01*
X0131511Y0076963D01*
X0131501Y0077121D01*
X0131495Y0077279D01*
X0131493Y0077437D01*
X0537398Y0406177D02*
X0537402Y0406467D01*
X0537412Y0406757D01*
X0537430Y0407046D01*
X0537455Y0407335D01*
X0537487Y0407623D01*
X0537526Y0407910D01*
X0537572Y0408196D01*
X0537625Y0408481D01*
X0537685Y0408765D01*
X0537752Y0409047D01*
X0537826Y0409327D01*
X0537907Y0409606D01*
X0537994Y0409882D01*
X0538088Y0410156D01*
X0538189Y0410428D01*
X0538297Y0410697D01*
X0538411Y0410963D01*
X0538532Y0411227D01*
X0538659Y0411487D01*
X0538793Y0411745D01*
X0538932Y0411999D01*
X0539078Y0412249D01*
X0539230Y0412496D01*
X0539389Y0412739D01*
X0539553Y0412978D01*
X0539722Y0413213D01*
X0539898Y0413444D01*
X0540079Y0413670D01*
X0540266Y0413892D01*
X0540458Y0414109D01*
X0540655Y0414321D01*
X0540857Y0414529D01*
X0541065Y0414731D01*
X0541277Y0414928D01*
X0541494Y0415120D01*
X0541716Y0415307D01*
X0541942Y0415488D01*
X0542173Y0415664D01*
X0542408Y0415833D01*
X0542647Y0415997D01*
X0542890Y0416156D01*
X0543137Y0416308D01*
X0543387Y0416454D01*
X0543641Y0416593D01*
X0543899Y0416727D01*
X0544159Y0416854D01*
X0544423Y0416975D01*
X0544689Y0417089D01*
X0544958Y0417197D01*
X0545230Y0417298D01*
X0545504Y0417392D01*
X0545780Y0417479D01*
X0546059Y0417560D01*
X0546339Y0417634D01*
X0546621Y0417701D01*
X0546905Y0417761D01*
X0547190Y0417814D01*
X0547476Y0417860D01*
X0547763Y0417899D01*
X0548051Y0417931D01*
X0548340Y0417956D01*
X0548629Y0417974D01*
X0548919Y0417984D01*
X0549209Y0417988D01*
X0549499Y0417984D01*
X0549789Y0417974D01*
X0550078Y0417956D01*
X0550367Y0417931D01*
X0550655Y0417899D01*
X0550942Y0417860D01*
X0551228Y0417814D01*
X0551513Y0417761D01*
X0551797Y0417701D01*
X0552079Y0417634D01*
X0552359Y0417560D01*
X0552638Y0417479D01*
X0552914Y0417392D01*
X0553188Y0417298D01*
X0553460Y0417197D01*
X0553729Y0417089D01*
X0553995Y0416975D01*
X0554259Y0416854D01*
X0554519Y0416727D01*
X0554777Y0416593D01*
X0555031Y0416454D01*
X0555281Y0416308D01*
X0555528Y0416156D01*
X0555771Y0415997D01*
X0556010Y0415833D01*
X0556245Y0415664D01*
X0556476Y0415488D01*
X0556702Y0415307D01*
X0556924Y0415120D01*
X0557141Y0414928D01*
X0557353Y0414731D01*
X0557561Y0414529D01*
X0557763Y0414321D01*
X0557960Y0414109D01*
X0558152Y0413892D01*
X0558339Y0413670D01*
X0558520Y0413444D01*
X0558696Y0413213D01*
X0558865Y0412978D01*
X0559029Y0412739D01*
X0559188Y0412496D01*
X0559340Y0412249D01*
X0559486Y0411999D01*
X0559625Y0411745D01*
X0559759Y0411487D01*
X0559886Y0411227D01*
X0560007Y0410963D01*
X0560121Y0410697D01*
X0560229Y0410428D01*
X0560330Y0410156D01*
X0560424Y0409882D01*
X0560511Y0409606D01*
X0560592Y0409327D01*
X0560666Y0409047D01*
X0560733Y0408765D01*
X0560793Y0408481D01*
X0560846Y0408196D01*
X0560892Y0407910D01*
X0560931Y0407623D01*
X0560963Y0407335D01*
X0560988Y0407046D01*
X0561006Y0406757D01*
X0561016Y0406467D01*
X0561020Y0406177D01*
X0561016Y0405887D01*
X0561006Y0405597D01*
X0560988Y0405308D01*
X0560963Y0405019D01*
X0560931Y0404731D01*
X0560892Y0404444D01*
X0560846Y0404158D01*
X0560793Y0403873D01*
X0560733Y0403589D01*
X0560666Y0403307D01*
X0560592Y0403027D01*
X0560511Y0402748D01*
X0560424Y0402472D01*
X0560330Y0402198D01*
X0560229Y0401926D01*
X0560121Y0401657D01*
X0560007Y0401391D01*
X0559886Y0401127D01*
X0559759Y0400867D01*
X0559625Y0400609D01*
X0559486Y0400355D01*
X0559340Y0400105D01*
X0559188Y0399858D01*
X0559029Y0399615D01*
X0558865Y0399376D01*
X0558696Y0399141D01*
X0558520Y0398910D01*
X0558339Y0398684D01*
X0558152Y0398462D01*
X0557960Y0398245D01*
X0557763Y0398033D01*
X0557561Y0397825D01*
X0557353Y0397623D01*
X0557141Y0397426D01*
X0556924Y0397234D01*
X0556702Y0397047D01*
X0556476Y0396866D01*
X0556245Y0396690D01*
X0556010Y0396521D01*
X0555771Y0396357D01*
X0555528Y0396198D01*
X0555281Y0396046D01*
X0555031Y0395900D01*
X0554777Y0395761D01*
X0554519Y0395627D01*
X0554259Y0395500D01*
X0553995Y0395379D01*
X0553729Y0395265D01*
X0553460Y0395157D01*
X0553188Y0395056D01*
X0552914Y0394962D01*
X0552638Y0394875D01*
X0552359Y0394794D01*
X0552079Y0394720D01*
X0551797Y0394653D01*
X0551513Y0394593D01*
X0551228Y0394540D01*
X0550942Y0394494D01*
X0550655Y0394455D01*
X0550367Y0394423D01*
X0550078Y0394398D01*
X0549789Y0394380D01*
X0549499Y0394370D01*
X0549209Y0394366D01*
X0548919Y0394370D01*
X0548629Y0394380D01*
X0548340Y0394398D01*
X0548051Y0394423D01*
X0547763Y0394455D01*
X0547476Y0394494D01*
X0547190Y0394540D01*
X0546905Y0394593D01*
X0546621Y0394653D01*
X0546339Y0394720D01*
X0546059Y0394794D01*
X0545780Y0394875D01*
X0545504Y0394962D01*
X0545230Y0395056D01*
X0544958Y0395157D01*
X0544689Y0395265D01*
X0544423Y0395379D01*
X0544159Y0395500D01*
X0543899Y0395627D01*
X0543641Y0395761D01*
X0543387Y0395900D01*
X0543137Y0396046D01*
X0542890Y0396198D01*
X0542647Y0396357D01*
X0542408Y0396521D01*
X0542173Y0396690D01*
X0541942Y0396866D01*
X0541716Y0397047D01*
X0541494Y0397234D01*
X0541277Y0397426D01*
X0541065Y0397623D01*
X0540857Y0397825D01*
X0540655Y0398033D01*
X0540458Y0398245D01*
X0540266Y0398462D01*
X0540079Y0398684D01*
X0539898Y0398910D01*
X0539722Y0399141D01*
X0539553Y0399376D01*
X0539389Y0399615D01*
X0539230Y0399858D01*
X0539078Y0400105D01*
X0538932Y0400355D01*
X0538793Y0400609D01*
X0538659Y0400867D01*
X0538532Y0401127D01*
X0538411Y0401391D01*
X0538297Y0401657D01*
X0538189Y0401926D01*
X0538088Y0402198D01*
X0537994Y0402472D01*
X0537907Y0402748D01*
X0537826Y0403027D01*
X0537752Y0403307D01*
X0537685Y0403589D01*
X0537625Y0403873D01*
X0537572Y0404158D01*
X0537526Y0404444D01*
X0537487Y0404731D01*
X0537455Y0405019D01*
X0537430Y0405308D01*
X0537412Y0405597D01*
X0537402Y0405887D01*
X0537398Y0406177D01*
X0537398Y0567594D02*
X0537402Y0567884D01*
X0537412Y0568174D01*
X0537430Y0568463D01*
X0537455Y0568752D01*
X0537487Y0569040D01*
X0537526Y0569327D01*
X0537572Y0569613D01*
X0537625Y0569898D01*
X0537685Y0570182D01*
X0537752Y0570464D01*
X0537826Y0570744D01*
X0537907Y0571023D01*
X0537994Y0571299D01*
X0538088Y0571573D01*
X0538189Y0571845D01*
X0538297Y0572114D01*
X0538411Y0572380D01*
X0538532Y0572644D01*
X0538659Y0572904D01*
X0538793Y0573162D01*
X0538932Y0573416D01*
X0539078Y0573666D01*
X0539230Y0573913D01*
X0539389Y0574156D01*
X0539553Y0574395D01*
X0539722Y0574630D01*
X0539898Y0574861D01*
X0540079Y0575087D01*
X0540266Y0575309D01*
X0540458Y0575526D01*
X0540655Y0575738D01*
X0540857Y0575946D01*
X0541065Y0576148D01*
X0541277Y0576345D01*
X0541494Y0576537D01*
X0541716Y0576724D01*
X0541942Y0576905D01*
X0542173Y0577081D01*
X0542408Y0577250D01*
X0542647Y0577414D01*
X0542890Y0577573D01*
X0543137Y0577725D01*
X0543387Y0577871D01*
X0543641Y0578010D01*
X0543899Y0578144D01*
X0544159Y0578271D01*
X0544423Y0578392D01*
X0544689Y0578506D01*
X0544958Y0578614D01*
X0545230Y0578715D01*
X0545504Y0578809D01*
X0545780Y0578896D01*
X0546059Y0578977D01*
X0546339Y0579051D01*
X0546621Y0579118D01*
X0546905Y0579178D01*
X0547190Y0579231D01*
X0547476Y0579277D01*
X0547763Y0579316D01*
X0548051Y0579348D01*
X0548340Y0579373D01*
X0548629Y0579391D01*
X0548919Y0579401D01*
X0549209Y0579405D01*
X0549499Y0579401D01*
X0549789Y0579391D01*
X0550078Y0579373D01*
X0550367Y0579348D01*
X0550655Y0579316D01*
X0550942Y0579277D01*
X0551228Y0579231D01*
X0551513Y0579178D01*
X0551797Y0579118D01*
X0552079Y0579051D01*
X0552359Y0578977D01*
X0552638Y0578896D01*
X0552914Y0578809D01*
X0553188Y0578715D01*
X0553460Y0578614D01*
X0553729Y0578506D01*
X0553995Y0578392D01*
X0554259Y0578271D01*
X0554519Y0578144D01*
X0554777Y0578010D01*
X0555031Y0577871D01*
X0555281Y0577725D01*
X0555528Y0577573D01*
X0555771Y0577414D01*
X0556010Y0577250D01*
X0556245Y0577081D01*
X0556476Y0576905D01*
X0556702Y0576724D01*
X0556924Y0576537D01*
X0557141Y0576345D01*
X0557353Y0576148D01*
X0557561Y0575946D01*
X0557763Y0575738D01*
X0557960Y0575526D01*
X0558152Y0575309D01*
X0558339Y0575087D01*
X0558520Y0574861D01*
X0558696Y0574630D01*
X0558865Y0574395D01*
X0559029Y0574156D01*
X0559188Y0573913D01*
X0559340Y0573666D01*
X0559486Y0573416D01*
X0559625Y0573162D01*
X0559759Y0572904D01*
X0559886Y0572644D01*
X0560007Y0572380D01*
X0560121Y0572114D01*
X0560229Y0571845D01*
X0560330Y0571573D01*
X0560424Y0571299D01*
X0560511Y0571023D01*
X0560592Y0570744D01*
X0560666Y0570464D01*
X0560733Y0570182D01*
X0560793Y0569898D01*
X0560846Y0569613D01*
X0560892Y0569327D01*
X0560931Y0569040D01*
X0560963Y0568752D01*
X0560988Y0568463D01*
X0561006Y0568174D01*
X0561016Y0567884D01*
X0561020Y0567594D01*
X0561016Y0567304D01*
X0561006Y0567014D01*
X0560988Y0566725D01*
X0560963Y0566436D01*
X0560931Y0566148D01*
X0560892Y0565861D01*
X0560846Y0565575D01*
X0560793Y0565290D01*
X0560733Y0565006D01*
X0560666Y0564724D01*
X0560592Y0564444D01*
X0560511Y0564165D01*
X0560424Y0563889D01*
X0560330Y0563615D01*
X0560229Y0563343D01*
X0560121Y0563074D01*
X0560007Y0562808D01*
X0559886Y0562544D01*
X0559759Y0562284D01*
X0559625Y0562026D01*
X0559486Y0561772D01*
X0559340Y0561522D01*
X0559188Y0561275D01*
X0559029Y0561032D01*
X0558865Y0560793D01*
X0558696Y0560558D01*
X0558520Y0560327D01*
X0558339Y0560101D01*
X0558152Y0559879D01*
X0557960Y0559662D01*
X0557763Y0559450D01*
X0557561Y0559242D01*
X0557353Y0559040D01*
X0557141Y0558843D01*
X0556924Y0558651D01*
X0556702Y0558464D01*
X0556476Y0558283D01*
X0556245Y0558107D01*
X0556010Y0557938D01*
X0555771Y0557774D01*
X0555528Y0557615D01*
X0555281Y0557463D01*
X0555031Y0557317D01*
X0554777Y0557178D01*
X0554519Y0557044D01*
X0554259Y0556917D01*
X0553995Y0556796D01*
X0553729Y0556682D01*
X0553460Y0556574D01*
X0553188Y0556473D01*
X0552914Y0556379D01*
X0552638Y0556292D01*
X0552359Y0556211D01*
X0552079Y0556137D01*
X0551797Y0556070D01*
X0551513Y0556010D01*
X0551228Y0555957D01*
X0550942Y0555911D01*
X0550655Y0555872D01*
X0550367Y0555840D01*
X0550078Y0555815D01*
X0549789Y0555797D01*
X0549499Y0555787D01*
X0549209Y0555783D01*
X0548919Y0555787D01*
X0548629Y0555797D01*
X0548340Y0555815D01*
X0548051Y0555840D01*
X0547763Y0555872D01*
X0547476Y0555911D01*
X0547190Y0555957D01*
X0546905Y0556010D01*
X0546621Y0556070D01*
X0546339Y0556137D01*
X0546059Y0556211D01*
X0545780Y0556292D01*
X0545504Y0556379D01*
X0545230Y0556473D01*
X0544958Y0556574D01*
X0544689Y0556682D01*
X0544423Y0556796D01*
X0544159Y0556917D01*
X0543899Y0557044D01*
X0543641Y0557178D01*
X0543387Y0557317D01*
X0543137Y0557463D01*
X0542890Y0557615D01*
X0542647Y0557774D01*
X0542408Y0557938D01*
X0542173Y0558107D01*
X0541942Y0558283D01*
X0541716Y0558464D01*
X0541494Y0558651D01*
X0541277Y0558843D01*
X0541065Y0559040D01*
X0540857Y0559242D01*
X0540655Y0559450D01*
X0540458Y0559662D01*
X0540266Y0559879D01*
X0540079Y0560101D01*
X0539898Y0560327D01*
X0539722Y0560558D01*
X0539553Y0560793D01*
X0539389Y0561032D01*
X0539230Y0561275D01*
X0539078Y0561522D01*
X0538932Y0561772D01*
X0538793Y0562026D01*
X0538659Y0562284D01*
X0538532Y0562544D01*
X0538411Y0562808D01*
X0538297Y0563074D01*
X0538189Y0563343D01*
X0538088Y0563615D01*
X0537994Y0563889D01*
X0537907Y0564165D01*
X0537826Y0564444D01*
X0537752Y0564724D01*
X0537685Y0565006D01*
X0537625Y0565290D01*
X0537572Y0565575D01*
X0537526Y0565861D01*
X0537487Y0566148D01*
X0537455Y0566436D01*
X0537430Y0566725D01*
X0537412Y0567014D01*
X0537402Y0567304D01*
X0537398Y0567594D01*
X0125981Y0900272D02*
X0125985Y0900562D01*
X0125995Y0900852D01*
X0126013Y0901141D01*
X0126038Y0901430D01*
X0126070Y0901718D01*
X0126109Y0902005D01*
X0126155Y0902291D01*
X0126208Y0902576D01*
X0126268Y0902860D01*
X0126335Y0903142D01*
X0126409Y0903422D01*
X0126490Y0903701D01*
X0126577Y0903977D01*
X0126671Y0904251D01*
X0126772Y0904523D01*
X0126880Y0904792D01*
X0126994Y0905058D01*
X0127115Y0905322D01*
X0127242Y0905582D01*
X0127376Y0905840D01*
X0127515Y0906094D01*
X0127661Y0906344D01*
X0127813Y0906591D01*
X0127972Y0906834D01*
X0128136Y0907073D01*
X0128305Y0907308D01*
X0128481Y0907539D01*
X0128662Y0907765D01*
X0128849Y0907987D01*
X0129041Y0908204D01*
X0129238Y0908416D01*
X0129440Y0908624D01*
X0129648Y0908826D01*
X0129860Y0909023D01*
X0130077Y0909215D01*
X0130299Y0909402D01*
X0130525Y0909583D01*
X0130756Y0909759D01*
X0130991Y0909928D01*
X0131230Y0910092D01*
X0131473Y0910251D01*
X0131720Y0910403D01*
X0131970Y0910549D01*
X0132224Y0910688D01*
X0132482Y0910822D01*
X0132742Y0910949D01*
X0133006Y0911070D01*
X0133272Y0911184D01*
X0133541Y0911292D01*
X0133813Y0911393D01*
X0134087Y0911487D01*
X0134363Y0911574D01*
X0134642Y0911655D01*
X0134922Y0911729D01*
X0135204Y0911796D01*
X0135488Y0911856D01*
X0135773Y0911909D01*
X0136059Y0911955D01*
X0136346Y0911994D01*
X0136634Y0912026D01*
X0136923Y0912051D01*
X0137212Y0912069D01*
X0137502Y0912079D01*
X0137792Y0912083D01*
X0138082Y0912079D01*
X0138372Y0912069D01*
X0138661Y0912051D01*
X0138950Y0912026D01*
X0139238Y0911994D01*
X0139525Y0911955D01*
X0139811Y0911909D01*
X0140096Y0911856D01*
X0140380Y0911796D01*
X0140662Y0911729D01*
X0140942Y0911655D01*
X0141221Y0911574D01*
X0141497Y0911487D01*
X0141771Y0911393D01*
X0142043Y0911292D01*
X0142312Y0911184D01*
X0142578Y0911070D01*
X0142842Y0910949D01*
X0143102Y0910822D01*
X0143360Y0910688D01*
X0143614Y0910549D01*
X0143864Y0910403D01*
X0144111Y0910251D01*
X0144354Y0910092D01*
X0144593Y0909928D01*
X0144828Y0909759D01*
X0145059Y0909583D01*
X0145285Y0909402D01*
X0145507Y0909215D01*
X0145724Y0909023D01*
X0145936Y0908826D01*
X0146144Y0908624D01*
X0146346Y0908416D01*
X0146543Y0908204D01*
X0146735Y0907987D01*
X0146922Y0907765D01*
X0147103Y0907539D01*
X0147279Y0907308D01*
X0147448Y0907073D01*
X0147612Y0906834D01*
X0147771Y0906591D01*
X0147923Y0906344D01*
X0148069Y0906094D01*
X0148208Y0905840D01*
X0148342Y0905582D01*
X0148469Y0905322D01*
X0148590Y0905058D01*
X0148704Y0904792D01*
X0148812Y0904523D01*
X0148913Y0904251D01*
X0149007Y0903977D01*
X0149094Y0903701D01*
X0149175Y0903422D01*
X0149249Y0903142D01*
X0149316Y0902860D01*
X0149376Y0902576D01*
X0149429Y0902291D01*
X0149475Y0902005D01*
X0149514Y0901718D01*
X0149546Y0901430D01*
X0149571Y0901141D01*
X0149589Y0900852D01*
X0149599Y0900562D01*
X0149603Y0900272D01*
X0149599Y0899982D01*
X0149589Y0899692D01*
X0149571Y0899403D01*
X0149546Y0899114D01*
X0149514Y0898826D01*
X0149475Y0898539D01*
X0149429Y0898253D01*
X0149376Y0897968D01*
X0149316Y0897684D01*
X0149249Y0897402D01*
X0149175Y0897122D01*
X0149094Y0896843D01*
X0149007Y0896567D01*
X0148913Y0896293D01*
X0148812Y0896021D01*
X0148704Y0895752D01*
X0148590Y0895486D01*
X0148469Y0895222D01*
X0148342Y0894962D01*
X0148208Y0894704D01*
X0148069Y0894450D01*
X0147923Y0894200D01*
X0147771Y0893953D01*
X0147612Y0893710D01*
X0147448Y0893471D01*
X0147279Y0893236D01*
X0147103Y0893005D01*
X0146922Y0892779D01*
X0146735Y0892557D01*
X0146543Y0892340D01*
X0146346Y0892128D01*
X0146144Y0891920D01*
X0145936Y0891718D01*
X0145724Y0891521D01*
X0145507Y0891329D01*
X0145285Y0891142D01*
X0145059Y0890961D01*
X0144828Y0890785D01*
X0144593Y0890616D01*
X0144354Y0890452D01*
X0144111Y0890293D01*
X0143864Y0890141D01*
X0143614Y0889995D01*
X0143360Y0889856D01*
X0143102Y0889722D01*
X0142842Y0889595D01*
X0142578Y0889474D01*
X0142312Y0889360D01*
X0142043Y0889252D01*
X0141771Y0889151D01*
X0141497Y0889057D01*
X0141221Y0888970D01*
X0140942Y0888889D01*
X0140662Y0888815D01*
X0140380Y0888748D01*
X0140096Y0888688D01*
X0139811Y0888635D01*
X0139525Y0888589D01*
X0139238Y0888550D01*
X0138950Y0888518D01*
X0138661Y0888493D01*
X0138372Y0888475D01*
X0138082Y0888465D01*
X0137792Y0888461D01*
X0137502Y0888465D01*
X0137212Y0888475D01*
X0136923Y0888493D01*
X0136634Y0888518D01*
X0136346Y0888550D01*
X0136059Y0888589D01*
X0135773Y0888635D01*
X0135488Y0888688D01*
X0135204Y0888748D01*
X0134922Y0888815D01*
X0134642Y0888889D01*
X0134363Y0888970D01*
X0134087Y0889057D01*
X0133813Y0889151D01*
X0133541Y0889252D01*
X0133272Y0889360D01*
X0133006Y0889474D01*
X0132742Y0889595D01*
X0132482Y0889722D01*
X0132224Y0889856D01*
X0131970Y0889995D01*
X0131720Y0890141D01*
X0131473Y0890293D01*
X0131230Y0890452D01*
X0130991Y0890616D01*
X0130756Y0890785D01*
X0130525Y0890961D01*
X0130299Y0891142D01*
X0130077Y0891329D01*
X0129860Y0891521D01*
X0129648Y0891718D01*
X0129440Y0891920D01*
X0129238Y0892128D01*
X0129041Y0892340D01*
X0128849Y0892557D01*
X0128662Y0892779D01*
X0128481Y0893005D01*
X0128305Y0893236D01*
X0128136Y0893471D01*
X0127972Y0893710D01*
X0127813Y0893953D01*
X0127661Y0894200D01*
X0127515Y0894450D01*
X0127376Y0894704D01*
X0127242Y0894962D01*
X0127115Y0895222D01*
X0126994Y0895486D01*
X0126880Y0895752D01*
X0126772Y0896021D01*
X0126671Y0896293D01*
X0126577Y0896567D01*
X0126490Y0896843D01*
X0126409Y0897122D01*
X0126335Y0897402D01*
X0126268Y0897684D01*
X0126208Y0897968D01*
X0126155Y0898253D01*
X0126109Y0898539D01*
X0126070Y0898826D01*
X0126038Y0899114D01*
X0126013Y0899403D01*
X0125995Y0899692D01*
X0125985Y0899982D01*
X0125981Y0900272D01*
X0131493Y0900272D02*
X0131495Y0900430D01*
X0131501Y0900588D01*
X0131511Y0900746D01*
X0131525Y0900904D01*
X0131543Y0901061D01*
X0131564Y0901218D01*
X0131590Y0901374D01*
X0131620Y0901530D01*
X0131653Y0901685D01*
X0131691Y0901838D01*
X0131732Y0901991D01*
X0131777Y0902143D01*
X0131826Y0902294D01*
X0131879Y0902443D01*
X0131935Y0902591D01*
X0131995Y0902737D01*
X0132059Y0902882D01*
X0132127Y0903025D01*
X0132198Y0903167D01*
X0132272Y0903307D01*
X0132350Y0903444D01*
X0132432Y0903580D01*
X0132516Y0903714D01*
X0132605Y0903845D01*
X0132696Y0903974D01*
X0132791Y0904101D01*
X0132888Y0904226D01*
X0132989Y0904348D01*
X0133093Y0904467D01*
X0133200Y0904584D01*
X0133310Y0904698D01*
X0133423Y0904809D01*
X0133538Y0904918D01*
X0133656Y0905023D01*
X0133777Y0905125D01*
X0133900Y0905225D01*
X0134026Y0905321D01*
X0134154Y0905414D01*
X0134284Y0905504D01*
X0134417Y0905590D01*
X0134552Y0905674D01*
X0134688Y0905753D01*
X0134827Y0905830D01*
X0134968Y0905902D01*
X0135110Y0905972D01*
X0135254Y0906037D01*
X0135400Y0906099D01*
X0135547Y0906157D01*
X0135696Y0906212D01*
X0135846Y0906263D01*
X0135997Y0906310D01*
X0136149Y0906353D01*
X0136302Y0906392D01*
X0136457Y0906428D01*
X0136612Y0906459D01*
X0136768Y0906487D01*
X0136924Y0906511D01*
X0137081Y0906531D01*
X0137239Y0906547D01*
X0137396Y0906559D01*
X0137555Y0906567D01*
X0137713Y0906571D01*
X0137871Y0906571D01*
X0138029Y0906567D01*
X0138188Y0906559D01*
X0138345Y0906547D01*
X0138503Y0906531D01*
X0138660Y0906511D01*
X0138816Y0906487D01*
X0138972Y0906459D01*
X0139127Y0906428D01*
X0139282Y0906392D01*
X0139435Y0906353D01*
X0139587Y0906310D01*
X0139738Y0906263D01*
X0139888Y0906212D01*
X0140037Y0906157D01*
X0140184Y0906099D01*
X0140330Y0906037D01*
X0140474Y0905972D01*
X0140616Y0905902D01*
X0140757Y0905830D01*
X0140896Y0905753D01*
X0141032Y0905674D01*
X0141167Y0905590D01*
X0141300Y0905504D01*
X0141430Y0905414D01*
X0141558Y0905321D01*
X0141684Y0905225D01*
X0141807Y0905125D01*
X0141928Y0905023D01*
X0142046Y0904918D01*
X0142161Y0904809D01*
X0142274Y0904698D01*
X0142384Y0904584D01*
X0142491Y0904467D01*
X0142595Y0904348D01*
X0142696Y0904226D01*
X0142793Y0904101D01*
X0142888Y0903974D01*
X0142979Y0903845D01*
X0143068Y0903714D01*
X0143152Y0903580D01*
X0143234Y0903444D01*
X0143312Y0903307D01*
X0143386Y0903167D01*
X0143457Y0903025D01*
X0143525Y0902882D01*
X0143589Y0902737D01*
X0143649Y0902591D01*
X0143705Y0902443D01*
X0143758Y0902294D01*
X0143807Y0902143D01*
X0143852Y0901991D01*
X0143893Y0901838D01*
X0143931Y0901685D01*
X0143964Y0901530D01*
X0143994Y0901374D01*
X0144020Y0901218D01*
X0144041Y0901061D01*
X0144059Y0900904D01*
X0144073Y0900746D01*
X0144083Y0900588D01*
X0144089Y0900430D01*
X0144091Y0900272D01*
X0144089Y0900114D01*
X0144083Y0899956D01*
X0144073Y0899798D01*
X0144059Y0899640D01*
X0144041Y0899483D01*
X0144020Y0899326D01*
X0143994Y0899170D01*
X0143964Y0899014D01*
X0143931Y0898859D01*
X0143893Y0898706D01*
X0143852Y0898553D01*
X0143807Y0898401D01*
X0143758Y0898250D01*
X0143705Y0898101D01*
X0143649Y0897953D01*
X0143589Y0897807D01*
X0143525Y0897662D01*
X0143457Y0897519D01*
X0143386Y0897377D01*
X0143312Y0897237D01*
X0143234Y0897100D01*
X0143152Y0896964D01*
X0143068Y0896830D01*
X0142979Y0896699D01*
X0142888Y0896570D01*
X0142793Y0896443D01*
X0142696Y0896318D01*
X0142595Y0896196D01*
X0142491Y0896077D01*
X0142384Y0895960D01*
X0142274Y0895846D01*
X0142161Y0895735D01*
X0142046Y0895626D01*
X0141928Y0895521D01*
X0141807Y0895419D01*
X0141684Y0895319D01*
X0141558Y0895223D01*
X0141430Y0895130D01*
X0141300Y0895040D01*
X0141167Y0894954D01*
X0141032Y0894870D01*
X0140896Y0894791D01*
X0140757Y0894714D01*
X0140616Y0894642D01*
X0140474Y0894572D01*
X0140330Y0894507D01*
X0140184Y0894445D01*
X0140037Y0894387D01*
X0139888Y0894332D01*
X0139738Y0894281D01*
X0139587Y0894234D01*
X0139435Y0894191D01*
X0139282Y0894152D01*
X0139127Y0894116D01*
X0138972Y0894085D01*
X0138816Y0894057D01*
X0138660Y0894033D01*
X0138503Y0894013D01*
X0138345Y0893997D01*
X0138188Y0893985D01*
X0138029Y0893977D01*
X0137871Y0893973D01*
X0137713Y0893973D01*
X0137555Y0893977D01*
X0137396Y0893985D01*
X0137239Y0893997D01*
X0137081Y0894013D01*
X0136924Y0894033D01*
X0136768Y0894057D01*
X0136612Y0894085D01*
X0136457Y0894116D01*
X0136302Y0894152D01*
X0136149Y0894191D01*
X0135997Y0894234D01*
X0135846Y0894281D01*
X0135696Y0894332D01*
X0135547Y0894387D01*
X0135400Y0894445D01*
X0135254Y0894507D01*
X0135110Y0894572D01*
X0134968Y0894642D01*
X0134827Y0894714D01*
X0134688Y0894791D01*
X0134552Y0894870D01*
X0134417Y0894954D01*
X0134284Y0895040D01*
X0134154Y0895130D01*
X0134026Y0895223D01*
X0133900Y0895319D01*
X0133777Y0895419D01*
X0133656Y0895521D01*
X0133538Y0895626D01*
X0133423Y0895735D01*
X0133310Y0895846D01*
X0133200Y0895960D01*
X0133093Y0896077D01*
X0132989Y0896196D01*
X0132888Y0896318D01*
X0132791Y0896443D01*
X0132696Y0896570D01*
X0132605Y0896699D01*
X0132516Y0896830D01*
X0132432Y0896964D01*
X0132350Y0897100D01*
X0132272Y0897237D01*
X0132198Y0897377D01*
X0132127Y0897519D01*
X0132059Y0897662D01*
X0131995Y0897807D01*
X0131935Y0897953D01*
X0131879Y0898101D01*
X0131826Y0898250D01*
X0131777Y0898401D01*
X0131732Y0898553D01*
X0131691Y0898706D01*
X0131653Y0898859D01*
X0131620Y0899014D01*
X0131590Y0899170D01*
X0131564Y0899326D01*
X0131543Y0899483D01*
X0131525Y0899640D01*
X0131511Y0899798D01*
X0131501Y0899956D01*
X0131495Y0900114D01*
X0131493Y0900272D01*
X0109839Y0990823D02*
X0109841Y0990981D01*
X0109847Y0991139D01*
X0109857Y0991297D01*
X0109871Y0991455D01*
X0109889Y0991612D01*
X0109910Y0991769D01*
X0109936Y0991925D01*
X0109966Y0992081D01*
X0109999Y0992236D01*
X0110037Y0992389D01*
X0110078Y0992542D01*
X0110123Y0992694D01*
X0110172Y0992845D01*
X0110225Y0992994D01*
X0110281Y0993142D01*
X0110341Y0993288D01*
X0110405Y0993433D01*
X0110473Y0993576D01*
X0110544Y0993718D01*
X0110618Y0993858D01*
X0110696Y0993995D01*
X0110778Y0994131D01*
X0110862Y0994265D01*
X0110951Y0994396D01*
X0111042Y0994525D01*
X0111137Y0994652D01*
X0111234Y0994777D01*
X0111335Y0994899D01*
X0111439Y0995018D01*
X0111546Y0995135D01*
X0111656Y0995249D01*
X0111769Y0995360D01*
X0111884Y0995469D01*
X0112002Y0995574D01*
X0112123Y0995676D01*
X0112246Y0995776D01*
X0112372Y0995872D01*
X0112500Y0995965D01*
X0112630Y0996055D01*
X0112763Y0996141D01*
X0112898Y0996225D01*
X0113034Y0996304D01*
X0113173Y0996381D01*
X0113314Y0996453D01*
X0113456Y0996523D01*
X0113600Y0996588D01*
X0113746Y0996650D01*
X0113893Y0996708D01*
X0114042Y0996763D01*
X0114192Y0996814D01*
X0114343Y0996861D01*
X0114495Y0996904D01*
X0114648Y0996943D01*
X0114803Y0996979D01*
X0114958Y0997010D01*
X0115114Y0997038D01*
X0115270Y0997062D01*
X0115427Y0997082D01*
X0115585Y0997098D01*
X0115742Y0997110D01*
X0115901Y0997118D01*
X0116059Y0997122D01*
X0116217Y0997122D01*
X0116375Y0997118D01*
X0116534Y0997110D01*
X0116691Y0997098D01*
X0116849Y0997082D01*
X0117006Y0997062D01*
X0117162Y0997038D01*
X0117318Y0997010D01*
X0117473Y0996979D01*
X0117628Y0996943D01*
X0117781Y0996904D01*
X0117933Y0996861D01*
X0118084Y0996814D01*
X0118234Y0996763D01*
X0118383Y0996708D01*
X0118530Y0996650D01*
X0118676Y0996588D01*
X0118820Y0996523D01*
X0118962Y0996453D01*
X0119103Y0996381D01*
X0119242Y0996304D01*
X0119378Y0996225D01*
X0119513Y0996141D01*
X0119646Y0996055D01*
X0119776Y0995965D01*
X0119904Y0995872D01*
X0120030Y0995776D01*
X0120153Y0995676D01*
X0120274Y0995574D01*
X0120392Y0995469D01*
X0120507Y0995360D01*
X0120620Y0995249D01*
X0120730Y0995135D01*
X0120837Y0995018D01*
X0120941Y0994899D01*
X0121042Y0994777D01*
X0121139Y0994652D01*
X0121234Y0994525D01*
X0121325Y0994396D01*
X0121414Y0994265D01*
X0121498Y0994131D01*
X0121580Y0993995D01*
X0121658Y0993858D01*
X0121732Y0993718D01*
X0121803Y0993576D01*
X0121871Y0993433D01*
X0121935Y0993288D01*
X0121995Y0993142D01*
X0122051Y0992994D01*
X0122104Y0992845D01*
X0122153Y0992694D01*
X0122198Y0992542D01*
X0122239Y0992389D01*
X0122277Y0992236D01*
X0122310Y0992081D01*
X0122340Y0991925D01*
X0122366Y0991769D01*
X0122387Y0991612D01*
X0122405Y0991455D01*
X0122419Y0991297D01*
X0122429Y0991139D01*
X0122435Y0990981D01*
X0122437Y0990823D01*
X0122435Y0990665D01*
X0122429Y0990507D01*
X0122419Y0990349D01*
X0122405Y0990191D01*
X0122387Y0990034D01*
X0122366Y0989877D01*
X0122340Y0989721D01*
X0122310Y0989565D01*
X0122277Y0989410D01*
X0122239Y0989257D01*
X0122198Y0989104D01*
X0122153Y0988952D01*
X0122104Y0988801D01*
X0122051Y0988652D01*
X0121995Y0988504D01*
X0121935Y0988358D01*
X0121871Y0988213D01*
X0121803Y0988070D01*
X0121732Y0987928D01*
X0121658Y0987788D01*
X0121580Y0987651D01*
X0121498Y0987515D01*
X0121414Y0987381D01*
X0121325Y0987250D01*
X0121234Y0987121D01*
X0121139Y0986994D01*
X0121042Y0986869D01*
X0120941Y0986747D01*
X0120837Y0986628D01*
X0120730Y0986511D01*
X0120620Y0986397D01*
X0120507Y0986286D01*
X0120392Y0986177D01*
X0120274Y0986072D01*
X0120153Y0985970D01*
X0120030Y0985870D01*
X0119904Y0985774D01*
X0119776Y0985681D01*
X0119646Y0985591D01*
X0119513Y0985505D01*
X0119378Y0985421D01*
X0119242Y0985342D01*
X0119103Y0985265D01*
X0118962Y0985193D01*
X0118820Y0985123D01*
X0118676Y0985058D01*
X0118530Y0984996D01*
X0118383Y0984938D01*
X0118234Y0984883D01*
X0118084Y0984832D01*
X0117933Y0984785D01*
X0117781Y0984742D01*
X0117628Y0984703D01*
X0117473Y0984667D01*
X0117318Y0984636D01*
X0117162Y0984608D01*
X0117006Y0984584D01*
X0116849Y0984564D01*
X0116691Y0984548D01*
X0116534Y0984536D01*
X0116375Y0984528D01*
X0116217Y0984524D01*
X0116059Y0984524D01*
X0115901Y0984528D01*
X0115742Y0984536D01*
X0115585Y0984548D01*
X0115427Y0984564D01*
X0115270Y0984584D01*
X0115114Y0984608D01*
X0114958Y0984636D01*
X0114803Y0984667D01*
X0114648Y0984703D01*
X0114495Y0984742D01*
X0114343Y0984785D01*
X0114192Y0984832D01*
X0114042Y0984883D01*
X0113893Y0984938D01*
X0113746Y0984996D01*
X0113600Y0985058D01*
X0113456Y0985123D01*
X0113314Y0985193D01*
X0113173Y0985265D01*
X0113034Y0985342D01*
X0112898Y0985421D01*
X0112763Y0985505D01*
X0112630Y0985591D01*
X0112500Y0985681D01*
X0112372Y0985774D01*
X0112246Y0985870D01*
X0112123Y0985970D01*
X0112002Y0986072D01*
X0111884Y0986177D01*
X0111769Y0986286D01*
X0111656Y0986397D01*
X0111546Y0986511D01*
X0111439Y0986628D01*
X0111335Y0986747D01*
X0111234Y0986869D01*
X0111137Y0986994D01*
X0111042Y0987121D01*
X0110951Y0987250D01*
X0110862Y0987381D01*
X0110778Y0987515D01*
X0110696Y0987651D01*
X0110618Y0987788D01*
X0110544Y0987928D01*
X0110473Y0988070D01*
X0110405Y0988213D01*
X0110341Y0988358D01*
X0110281Y0988504D01*
X0110225Y0988652D01*
X0110172Y0988801D01*
X0110123Y0988952D01*
X0110078Y0989104D01*
X0110037Y0989257D01*
X0109999Y0989410D01*
X0109966Y0989565D01*
X0109936Y0989721D01*
X0109910Y0989877D01*
X0109889Y0990034D01*
X0109871Y0990191D01*
X0109857Y0990349D01*
X0109847Y0990507D01*
X0109841Y0990665D01*
X0109839Y0990823D01*
X0948816Y0900272D02*
X0948820Y0900562D01*
X0948830Y0900852D01*
X0948848Y0901141D01*
X0948873Y0901430D01*
X0948905Y0901718D01*
X0948944Y0902005D01*
X0948990Y0902291D01*
X0949043Y0902576D01*
X0949103Y0902860D01*
X0949170Y0903142D01*
X0949244Y0903422D01*
X0949325Y0903701D01*
X0949412Y0903977D01*
X0949506Y0904251D01*
X0949607Y0904523D01*
X0949715Y0904792D01*
X0949829Y0905058D01*
X0949950Y0905322D01*
X0950077Y0905582D01*
X0950211Y0905840D01*
X0950350Y0906094D01*
X0950496Y0906344D01*
X0950648Y0906591D01*
X0950807Y0906834D01*
X0950971Y0907073D01*
X0951140Y0907308D01*
X0951316Y0907539D01*
X0951497Y0907765D01*
X0951684Y0907987D01*
X0951876Y0908204D01*
X0952073Y0908416D01*
X0952275Y0908624D01*
X0952483Y0908826D01*
X0952695Y0909023D01*
X0952912Y0909215D01*
X0953134Y0909402D01*
X0953360Y0909583D01*
X0953591Y0909759D01*
X0953826Y0909928D01*
X0954065Y0910092D01*
X0954308Y0910251D01*
X0954555Y0910403D01*
X0954805Y0910549D01*
X0955059Y0910688D01*
X0955317Y0910822D01*
X0955577Y0910949D01*
X0955841Y0911070D01*
X0956107Y0911184D01*
X0956376Y0911292D01*
X0956648Y0911393D01*
X0956922Y0911487D01*
X0957198Y0911574D01*
X0957477Y0911655D01*
X0957757Y0911729D01*
X0958039Y0911796D01*
X0958323Y0911856D01*
X0958608Y0911909D01*
X0958894Y0911955D01*
X0959181Y0911994D01*
X0959469Y0912026D01*
X0959758Y0912051D01*
X0960047Y0912069D01*
X0960337Y0912079D01*
X0960627Y0912083D01*
X0960917Y0912079D01*
X0961207Y0912069D01*
X0961496Y0912051D01*
X0961785Y0912026D01*
X0962073Y0911994D01*
X0962360Y0911955D01*
X0962646Y0911909D01*
X0962931Y0911856D01*
X0963215Y0911796D01*
X0963497Y0911729D01*
X0963777Y0911655D01*
X0964056Y0911574D01*
X0964332Y0911487D01*
X0964606Y0911393D01*
X0964878Y0911292D01*
X0965147Y0911184D01*
X0965413Y0911070D01*
X0965677Y0910949D01*
X0965937Y0910822D01*
X0966195Y0910688D01*
X0966449Y0910549D01*
X0966699Y0910403D01*
X0966946Y0910251D01*
X0967189Y0910092D01*
X0967428Y0909928D01*
X0967663Y0909759D01*
X0967894Y0909583D01*
X0968120Y0909402D01*
X0968342Y0909215D01*
X0968559Y0909023D01*
X0968771Y0908826D01*
X0968979Y0908624D01*
X0969181Y0908416D01*
X0969378Y0908204D01*
X0969570Y0907987D01*
X0969757Y0907765D01*
X0969938Y0907539D01*
X0970114Y0907308D01*
X0970283Y0907073D01*
X0970447Y0906834D01*
X0970606Y0906591D01*
X0970758Y0906344D01*
X0970904Y0906094D01*
X0971043Y0905840D01*
X0971177Y0905582D01*
X0971304Y0905322D01*
X0971425Y0905058D01*
X0971539Y0904792D01*
X0971647Y0904523D01*
X0971748Y0904251D01*
X0971842Y0903977D01*
X0971929Y0903701D01*
X0972010Y0903422D01*
X0972084Y0903142D01*
X0972151Y0902860D01*
X0972211Y0902576D01*
X0972264Y0902291D01*
X0972310Y0902005D01*
X0972349Y0901718D01*
X0972381Y0901430D01*
X0972406Y0901141D01*
X0972424Y0900852D01*
X0972434Y0900562D01*
X0972438Y0900272D01*
X0972434Y0899982D01*
X0972424Y0899692D01*
X0972406Y0899403D01*
X0972381Y0899114D01*
X0972349Y0898826D01*
X0972310Y0898539D01*
X0972264Y0898253D01*
X0972211Y0897968D01*
X0972151Y0897684D01*
X0972084Y0897402D01*
X0972010Y0897122D01*
X0971929Y0896843D01*
X0971842Y0896567D01*
X0971748Y0896293D01*
X0971647Y0896021D01*
X0971539Y0895752D01*
X0971425Y0895486D01*
X0971304Y0895222D01*
X0971177Y0894962D01*
X0971043Y0894704D01*
X0970904Y0894450D01*
X0970758Y0894200D01*
X0970606Y0893953D01*
X0970447Y0893710D01*
X0970283Y0893471D01*
X0970114Y0893236D01*
X0969938Y0893005D01*
X0969757Y0892779D01*
X0969570Y0892557D01*
X0969378Y0892340D01*
X0969181Y0892128D01*
X0968979Y0891920D01*
X0968771Y0891718D01*
X0968559Y0891521D01*
X0968342Y0891329D01*
X0968120Y0891142D01*
X0967894Y0890961D01*
X0967663Y0890785D01*
X0967428Y0890616D01*
X0967189Y0890452D01*
X0966946Y0890293D01*
X0966699Y0890141D01*
X0966449Y0889995D01*
X0966195Y0889856D01*
X0965937Y0889722D01*
X0965677Y0889595D01*
X0965413Y0889474D01*
X0965147Y0889360D01*
X0964878Y0889252D01*
X0964606Y0889151D01*
X0964332Y0889057D01*
X0964056Y0888970D01*
X0963777Y0888889D01*
X0963497Y0888815D01*
X0963215Y0888748D01*
X0962931Y0888688D01*
X0962646Y0888635D01*
X0962360Y0888589D01*
X0962073Y0888550D01*
X0961785Y0888518D01*
X0961496Y0888493D01*
X0961207Y0888475D01*
X0960917Y0888465D01*
X0960627Y0888461D01*
X0960337Y0888465D01*
X0960047Y0888475D01*
X0959758Y0888493D01*
X0959469Y0888518D01*
X0959181Y0888550D01*
X0958894Y0888589D01*
X0958608Y0888635D01*
X0958323Y0888688D01*
X0958039Y0888748D01*
X0957757Y0888815D01*
X0957477Y0888889D01*
X0957198Y0888970D01*
X0956922Y0889057D01*
X0956648Y0889151D01*
X0956376Y0889252D01*
X0956107Y0889360D01*
X0955841Y0889474D01*
X0955577Y0889595D01*
X0955317Y0889722D01*
X0955059Y0889856D01*
X0954805Y0889995D01*
X0954555Y0890141D01*
X0954308Y0890293D01*
X0954065Y0890452D01*
X0953826Y0890616D01*
X0953591Y0890785D01*
X0953360Y0890961D01*
X0953134Y0891142D01*
X0952912Y0891329D01*
X0952695Y0891521D01*
X0952483Y0891718D01*
X0952275Y0891920D01*
X0952073Y0892128D01*
X0951876Y0892340D01*
X0951684Y0892557D01*
X0951497Y0892779D01*
X0951316Y0893005D01*
X0951140Y0893236D01*
X0950971Y0893471D01*
X0950807Y0893710D01*
X0950648Y0893953D01*
X0950496Y0894200D01*
X0950350Y0894450D01*
X0950211Y0894704D01*
X0950077Y0894962D01*
X0949950Y0895222D01*
X0949829Y0895486D01*
X0949715Y0895752D01*
X0949607Y0896021D01*
X0949506Y0896293D01*
X0949412Y0896567D01*
X0949325Y0896843D01*
X0949244Y0897122D01*
X0949170Y0897402D01*
X0949103Y0897684D01*
X0949043Y0897968D01*
X0948990Y0898253D01*
X0948944Y0898539D01*
X0948905Y0898826D01*
X0948873Y0899114D01*
X0948848Y0899403D01*
X0948830Y0899692D01*
X0948820Y0899982D01*
X0948816Y0900272D01*
X0954328Y0900272D02*
X0954330Y0900430D01*
X0954336Y0900588D01*
X0954346Y0900746D01*
X0954360Y0900904D01*
X0954378Y0901061D01*
X0954399Y0901218D01*
X0954425Y0901374D01*
X0954455Y0901530D01*
X0954488Y0901685D01*
X0954526Y0901838D01*
X0954567Y0901991D01*
X0954612Y0902143D01*
X0954661Y0902294D01*
X0954714Y0902443D01*
X0954770Y0902591D01*
X0954830Y0902737D01*
X0954894Y0902882D01*
X0954962Y0903025D01*
X0955033Y0903167D01*
X0955107Y0903307D01*
X0955185Y0903444D01*
X0955267Y0903580D01*
X0955351Y0903714D01*
X0955440Y0903845D01*
X0955531Y0903974D01*
X0955626Y0904101D01*
X0955723Y0904226D01*
X0955824Y0904348D01*
X0955928Y0904467D01*
X0956035Y0904584D01*
X0956145Y0904698D01*
X0956258Y0904809D01*
X0956373Y0904918D01*
X0956491Y0905023D01*
X0956612Y0905125D01*
X0956735Y0905225D01*
X0956861Y0905321D01*
X0956989Y0905414D01*
X0957119Y0905504D01*
X0957252Y0905590D01*
X0957387Y0905674D01*
X0957523Y0905753D01*
X0957662Y0905830D01*
X0957803Y0905902D01*
X0957945Y0905972D01*
X0958089Y0906037D01*
X0958235Y0906099D01*
X0958382Y0906157D01*
X0958531Y0906212D01*
X0958681Y0906263D01*
X0958832Y0906310D01*
X0958984Y0906353D01*
X0959137Y0906392D01*
X0959292Y0906428D01*
X0959447Y0906459D01*
X0959603Y0906487D01*
X0959759Y0906511D01*
X0959916Y0906531D01*
X0960074Y0906547D01*
X0960231Y0906559D01*
X0960390Y0906567D01*
X0960548Y0906571D01*
X0960706Y0906571D01*
X0960864Y0906567D01*
X0961023Y0906559D01*
X0961180Y0906547D01*
X0961338Y0906531D01*
X0961495Y0906511D01*
X0961651Y0906487D01*
X0961807Y0906459D01*
X0961962Y0906428D01*
X0962117Y0906392D01*
X0962270Y0906353D01*
X0962422Y0906310D01*
X0962573Y0906263D01*
X0962723Y0906212D01*
X0962872Y0906157D01*
X0963019Y0906099D01*
X0963165Y0906037D01*
X0963309Y0905972D01*
X0963451Y0905902D01*
X0963592Y0905830D01*
X0963731Y0905753D01*
X0963867Y0905674D01*
X0964002Y0905590D01*
X0964135Y0905504D01*
X0964265Y0905414D01*
X0964393Y0905321D01*
X0964519Y0905225D01*
X0964642Y0905125D01*
X0964763Y0905023D01*
X0964881Y0904918D01*
X0964996Y0904809D01*
X0965109Y0904698D01*
X0965219Y0904584D01*
X0965326Y0904467D01*
X0965430Y0904348D01*
X0965531Y0904226D01*
X0965628Y0904101D01*
X0965723Y0903974D01*
X0965814Y0903845D01*
X0965903Y0903714D01*
X0965987Y0903580D01*
X0966069Y0903444D01*
X0966147Y0903307D01*
X0966221Y0903167D01*
X0966292Y0903025D01*
X0966360Y0902882D01*
X0966424Y0902737D01*
X0966484Y0902591D01*
X0966540Y0902443D01*
X0966593Y0902294D01*
X0966642Y0902143D01*
X0966687Y0901991D01*
X0966728Y0901838D01*
X0966766Y0901685D01*
X0966799Y0901530D01*
X0966829Y0901374D01*
X0966855Y0901218D01*
X0966876Y0901061D01*
X0966894Y0900904D01*
X0966908Y0900746D01*
X0966918Y0900588D01*
X0966924Y0900430D01*
X0966926Y0900272D01*
X0966924Y0900114D01*
X0966918Y0899956D01*
X0966908Y0899798D01*
X0966894Y0899640D01*
X0966876Y0899483D01*
X0966855Y0899326D01*
X0966829Y0899170D01*
X0966799Y0899014D01*
X0966766Y0898859D01*
X0966728Y0898706D01*
X0966687Y0898553D01*
X0966642Y0898401D01*
X0966593Y0898250D01*
X0966540Y0898101D01*
X0966484Y0897953D01*
X0966424Y0897807D01*
X0966360Y0897662D01*
X0966292Y0897519D01*
X0966221Y0897377D01*
X0966147Y0897237D01*
X0966069Y0897100D01*
X0965987Y0896964D01*
X0965903Y0896830D01*
X0965814Y0896699D01*
X0965723Y0896570D01*
X0965628Y0896443D01*
X0965531Y0896318D01*
X0965430Y0896196D01*
X0965326Y0896077D01*
X0965219Y0895960D01*
X0965109Y0895846D01*
X0964996Y0895735D01*
X0964881Y0895626D01*
X0964763Y0895521D01*
X0964642Y0895419D01*
X0964519Y0895319D01*
X0964393Y0895223D01*
X0964265Y0895130D01*
X0964135Y0895040D01*
X0964002Y0894954D01*
X0963867Y0894870D01*
X0963731Y0894791D01*
X0963592Y0894714D01*
X0963451Y0894642D01*
X0963309Y0894572D01*
X0963165Y0894507D01*
X0963019Y0894445D01*
X0962872Y0894387D01*
X0962723Y0894332D01*
X0962573Y0894281D01*
X0962422Y0894234D01*
X0962270Y0894191D01*
X0962117Y0894152D01*
X0961962Y0894116D01*
X0961807Y0894085D01*
X0961651Y0894057D01*
X0961495Y0894033D01*
X0961338Y0894013D01*
X0961180Y0893997D01*
X0961023Y0893985D01*
X0960864Y0893977D01*
X0960706Y0893973D01*
X0960548Y0893973D01*
X0960390Y0893977D01*
X0960231Y0893985D01*
X0960074Y0893997D01*
X0959916Y0894013D01*
X0959759Y0894033D01*
X0959603Y0894057D01*
X0959447Y0894085D01*
X0959292Y0894116D01*
X0959137Y0894152D01*
X0958984Y0894191D01*
X0958832Y0894234D01*
X0958681Y0894281D01*
X0958531Y0894332D01*
X0958382Y0894387D01*
X0958235Y0894445D01*
X0958089Y0894507D01*
X0957945Y0894572D01*
X0957803Y0894642D01*
X0957662Y0894714D01*
X0957523Y0894791D01*
X0957387Y0894870D01*
X0957252Y0894954D01*
X0957119Y0895040D01*
X0956989Y0895130D01*
X0956861Y0895223D01*
X0956735Y0895319D01*
X0956612Y0895419D01*
X0956491Y0895521D01*
X0956373Y0895626D01*
X0956258Y0895735D01*
X0956145Y0895846D01*
X0956035Y0895960D01*
X0955928Y0896077D01*
X0955824Y0896196D01*
X0955723Y0896318D01*
X0955626Y0896443D01*
X0955531Y0896570D01*
X0955440Y0896699D01*
X0955351Y0896830D01*
X0955267Y0896964D01*
X0955185Y0897100D01*
X0955107Y0897237D01*
X0955033Y0897377D01*
X0954962Y0897519D01*
X0954894Y0897662D01*
X0954830Y0897807D01*
X0954770Y0897953D01*
X0954714Y0898101D01*
X0954661Y0898250D01*
X0954612Y0898401D01*
X0954567Y0898553D01*
X0954526Y0898706D01*
X0954488Y0898859D01*
X0954455Y0899014D01*
X0954425Y0899170D01*
X0954399Y0899326D01*
X0954378Y0899483D01*
X0954360Y0899640D01*
X0954346Y0899798D01*
X0954336Y0899956D01*
X0954330Y0900114D01*
X0954328Y0900272D01*
X0948816Y0077437D02*
X0948820Y0077727D01*
X0948830Y0078017D01*
X0948848Y0078306D01*
X0948873Y0078595D01*
X0948905Y0078883D01*
X0948944Y0079170D01*
X0948990Y0079456D01*
X0949043Y0079741D01*
X0949103Y0080025D01*
X0949170Y0080307D01*
X0949244Y0080587D01*
X0949325Y0080866D01*
X0949412Y0081142D01*
X0949506Y0081416D01*
X0949607Y0081688D01*
X0949715Y0081957D01*
X0949829Y0082223D01*
X0949950Y0082487D01*
X0950077Y0082747D01*
X0950211Y0083005D01*
X0950350Y0083259D01*
X0950496Y0083509D01*
X0950648Y0083756D01*
X0950807Y0083999D01*
X0950971Y0084238D01*
X0951140Y0084473D01*
X0951316Y0084704D01*
X0951497Y0084930D01*
X0951684Y0085152D01*
X0951876Y0085369D01*
X0952073Y0085581D01*
X0952275Y0085789D01*
X0952483Y0085991D01*
X0952695Y0086188D01*
X0952912Y0086380D01*
X0953134Y0086567D01*
X0953360Y0086748D01*
X0953591Y0086924D01*
X0953826Y0087093D01*
X0954065Y0087257D01*
X0954308Y0087416D01*
X0954555Y0087568D01*
X0954805Y0087714D01*
X0955059Y0087853D01*
X0955317Y0087987D01*
X0955577Y0088114D01*
X0955841Y0088235D01*
X0956107Y0088349D01*
X0956376Y0088457D01*
X0956648Y0088558D01*
X0956922Y0088652D01*
X0957198Y0088739D01*
X0957477Y0088820D01*
X0957757Y0088894D01*
X0958039Y0088961D01*
X0958323Y0089021D01*
X0958608Y0089074D01*
X0958894Y0089120D01*
X0959181Y0089159D01*
X0959469Y0089191D01*
X0959758Y0089216D01*
X0960047Y0089234D01*
X0960337Y0089244D01*
X0960627Y0089248D01*
X0960917Y0089244D01*
X0961207Y0089234D01*
X0961496Y0089216D01*
X0961785Y0089191D01*
X0962073Y0089159D01*
X0962360Y0089120D01*
X0962646Y0089074D01*
X0962931Y0089021D01*
X0963215Y0088961D01*
X0963497Y0088894D01*
X0963777Y0088820D01*
X0964056Y0088739D01*
X0964332Y0088652D01*
X0964606Y0088558D01*
X0964878Y0088457D01*
X0965147Y0088349D01*
X0965413Y0088235D01*
X0965677Y0088114D01*
X0965937Y0087987D01*
X0966195Y0087853D01*
X0966449Y0087714D01*
X0966699Y0087568D01*
X0966946Y0087416D01*
X0967189Y0087257D01*
X0967428Y0087093D01*
X0967663Y0086924D01*
X0967894Y0086748D01*
X0968120Y0086567D01*
X0968342Y0086380D01*
X0968559Y0086188D01*
X0968771Y0085991D01*
X0968979Y0085789D01*
X0969181Y0085581D01*
X0969378Y0085369D01*
X0969570Y0085152D01*
X0969757Y0084930D01*
X0969938Y0084704D01*
X0970114Y0084473D01*
X0970283Y0084238D01*
X0970447Y0083999D01*
X0970606Y0083756D01*
X0970758Y0083509D01*
X0970904Y0083259D01*
X0971043Y0083005D01*
X0971177Y0082747D01*
X0971304Y0082487D01*
X0971425Y0082223D01*
X0971539Y0081957D01*
X0971647Y0081688D01*
X0971748Y0081416D01*
X0971842Y0081142D01*
X0971929Y0080866D01*
X0972010Y0080587D01*
X0972084Y0080307D01*
X0972151Y0080025D01*
X0972211Y0079741D01*
X0972264Y0079456D01*
X0972310Y0079170D01*
X0972349Y0078883D01*
X0972381Y0078595D01*
X0972406Y0078306D01*
X0972424Y0078017D01*
X0972434Y0077727D01*
X0972438Y0077437D01*
X0972434Y0077147D01*
X0972424Y0076857D01*
X0972406Y0076568D01*
X0972381Y0076279D01*
X0972349Y0075991D01*
X0972310Y0075704D01*
X0972264Y0075418D01*
X0972211Y0075133D01*
X0972151Y0074849D01*
X0972084Y0074567D01*
X0972010Y0074287D01*
X0971929Y0074008D01*
X0971842Y0073732D01*
X0971748Y0073458D01*
X0971647Y0073186D01*
X0971539Y0072917D01*
X0971425Y0072651D01*
X0971304Y0072387D01*
X0971177Y0072127D01*
X0971043Y0071869D01*
X0970904Y0071615D01*
X0970758Y0071365D01*
X0970606Y0071118D01*
X0970447Y0070875D01*
X0970283Y0070636D01*
X0970114Y0070401D01*
X0969938Y0070170D01*
X0969757Y0069944D01*
X0969570Y0069722D01*
X0969378Y0069505D01*
X0969181Y0069293D01*
X0968979Y0069085D01*
X0968771Y0068883D01*
X0968559Y0068686D01*
X0968342Y0068494D01*
X0968120Y0068307D01*
X0967894Y0068126D01*
X0967663Y0067950D01*
X0967428Y0067781D01*
X0967189Y0067617D01*
X0966946Y0067458D01*
X0966699Y0067306D01*
X0966449Y0067160D01*
X0966195Y0067021D01*
X0965937Y0066887D01*
X0965677Y0066760D01*
X0965413Y0066639D01*
X0965147Y0066525D01*
X0964878Y0066417D01*
X0964606Y0066316D01*
X0964332Y0066222D01*
X0964056Y0066135D01*
X0963777Y0066054D01*
X0963497Y0065980D01*
X0963215Y0065913D01*
X0962931Y0065853D01*
X0962646Y0065800D01*
X0962360Y0065754D01*
X0962073Y0065715D01*
X0961785Y0065683D01*
X0961496Y0065658D01*
X0961207Y0065640D01*
X0960917Y0065630D01*
X0960627Y0065626D01*
X0960337Y0065630D01*
X0960047Y0065640D01*
X0959758Y0065658D01*
X0959469Y0065683D01*
X0959181Y0065715D01*
X0958894Y0065754D01*
X0958608Y0065800D01*
X0958323Y0065853D01*
X0958039Y0065913D01*
X0957757Y0065980D01*
X0957477Y0066054D01*
X0957198Y0066135D01*
X0956922Y0066222D01*
X0956648Y0066316D01*
X0956376Y0066417D01*
X0956107Y0066525D01*
X0955841Y0066639D01*
X0955577Y0066760D01*
X0955317Y0066887D01*
X0955059Y0067021D01*
X0954805Y0067160D01*
X0954555Y0067306D01*
X0954308Y0067458D01*
X0954065Y0067617D01*
X0953826Y0067781D01*
X0953591Y0067950D01*
X0953360Y0068126D01*
X0953134Y0068307D01*
X0952912Y0068494D01*
X0952695Y0068686D01*
X0952483Y0068883D01*
X0952275Y0069085D01*
X0952073Y0069293D01*
X0951876Y0069505D01*
X0951684Y0069722D01*
X0951497Y0069944D01*
X0951316Y0070170D01*
X0951140Y0070401D01*
X0950971Y0070636D01*
X0950807Y0070875D01*
X0950648Y0071118D01*
X0950496Y0071365D01*
X0950350Y0071615D01*
X0950211Y0071869D01*
X0950077Y0072127D01*
X0949950Y0072387D01*
X0949829Y0072651D01*
X0949715Y0072917D01*
X0949607Y0073186D01*
X0949506Y0073458D01*
X0949412Y0073732D01*
X0949325Y0074008D01*
X0949244Y0074287D01*
X0949170Y0074567D01*
X0949103Y0074849D01*
X0949043Y0075133D01*
X0948990Y0075418D01*
X0948944Y0075704D01*
X0948905Y0075991D01*
X0948873Y0076279D01*
X0948848Y0076568D01*
X0948830Y0076857D01*
X0948820Y0077147D01*
X0948816Y0077437D01*
X0954328Y0077437D02*
X0954330Y0077595D01*
X0954336Y0077753D01*
X0954346Y0077911D01*
X0954360Y0078069D01*
X0954378Y0078226D01*
X0954399Y0078383D01*
X0954425Y0078539D01*
X0954455Y0078695D01*
X0954488Y0078850D01*
X0954526Y0079003D01*
X0954567Y0079156D01*
X0954612Y0079308D01*
X0954661Y0079459D01*
X0954714Y0079608D01*
X0954770Y0079756D01*
X0954830Y0079902D01*
X0954894Y0080047D01*
X0954962Y0080190D01*
X0955033Y0080332D01*
X0955107Y0080472D01*
X0955185Y0080609D01*
X0955267Y0080745D01*
X0955351Y0080879D01*
X0955440Y0081010D01*
X0955531Y0081139D01*
X0955626Y0081266D01*
X0955723Y0081391D01*
X0955824Y0081513D01*
X0955928Y0081632D01*
X0956035Y0081749D01*
X0956145Y0081863D01*
X0956258Y0081974D01*
X0956373Y0082083D01*
X0956491Y0082188D01*
X0956612Y0082290D01*
X0956735Y0082390D01*
X0956861Y0082486D01*
X0956989Y0082579D01*
X0957119Y0082669D01*
X0957252Y0082755D01*
X0957387Y0082839D01*
X0957523Y0082918D01*
X0957662Y0082995D01*
X0957803Y0083067D01*
X0957945Y0083137D01*
X0958089Y0083202D01*
X0958235Y0083264D01*
X0958382Y0083322D01*
X0958531Y0083377D01*
X0958681Y0083428D01*
X0958832Y0083475D01*
X0958984Y0083518D01*
X0959137Y0083557D01*
X0959292Y0083593D01*
X0959447Y0083624D01*
X0959603Y0083652D01*
X0959759Y0083676D01*
X0959916Y0083696D01*
X0960074Y0083712D01*
X0960231Y0083724D01*
X0960390Y0083732D01*
X0960548Y0083736D01*
X0960706Y0083736D01*
X0960864Y0083732D01*
X0961023Y0083724D01*
X0961180Y0083712D01*
X0961338Y0083696D01*
X0961495Y0083676D01*
X0961651Y0083652D01*
X0961807Y0083624D01*
X0961962Y0083593D01*
X0962117Y0083557D01*
X0962270Y0083518D01*
X0962422Y0083475D01*
X0962573Y0083428D01*
X0962723Y0083377D01*
X0962872Y0083322D01*
X0963019Y0083264D01*
X0963165Y0083202D01*
X0963309Y0083137D01*
X0963451Y0083067D01*
X0963592Y0082995D01*
X0963731Y0082918D01*
X0963867Y0082839D01*
X0964002Y0082755D01*
X0964135Y0082669D01*
X0964265Y0082579D01*
X0964393Y0082486D01*
X0964519Y0082390D01*
X0964642Y0082290D01*
X0964763Y0082188D01*
X0964881Y0082083D01*
X0964996Y0081974D01*
X0965109Y0081863D01*
X0965219Y0081749D01*
X0965326Y0081632D01*
X0965430Y0081513D01*
X0965531Y0081391D01*
X0965628Y0081266D01*
X0965723Y0081139D01*
X0965814Y0081010D01*
X0965903Y0080879D01*
X0965987Y0080745D01*
X0966069Y0080609D01*
X0966147Y0080472D01*
X0966221Y0080332D01*
X0966292Y0080190D01*
X0966360Y0080047D01*
X0966424Y0079902D01*
X0966484Y0079756D01*
X0966540Y0079608D01*
X0966593Y0079459D01*
X0966642Y0079308D01*
X0966687Y0079156D01*
X0966728Y0079003D01*
X0966766Y0078850D01*
X0966799Y0078695D01*
X0966829Y0078539D01*
X0966855Y0078383D01*
X0966876Y0078226D01*
X0966894Y0078069D01*
X0966908Y0077911D01*
X0966918Y0077753D01*
X0966924Y0077595D01*
X0966926Y0077437D01*
X0966924Y0077279D01*
X0966918Y0077121D01*
X0966908Y0076963D01*
X0966894Y0076805D01*
X0966876Y0076648D01*
X0966855Y0076491D01*
X0966829Y0076335D01*
X0966799Y0076179D01*
X0966766Y0076024D01*
X0966728Y0075871D01*
X0966687Y0075718D01*
X0966642Y0075566D01*
X0966593Y0075415D01*
X0966540Y0075266D01*
X0966484Y0075118D01*
X0966424Y0074972D01*
X0966360Y0074827D01*
X0966292Y0074684D01*
X0966221Y0074542D01*
X0966147Y0074402D01*
X0966069Y0074265D01*
X0965987Y0074129D01*
X0965903Y0073995D01*
X0965814Y0073864D01*
X0965723Y0073735D01*
X0965628Y0073608D01*
X0965531Y0073483D01*
X0965430Y0073361D01*
X0965326Y0073242D01*
X0965219Y0073125D01*
X0965109Y0073011D01*
X0964996Y0072900D01*
X0964881Y0072791D01*
X0964763Y0072686D01*
X0964642Y0072584D01*
X0964519Y0072484D01*
X0964393Y0072388D01*
X0964265Y0072295D01*
X0964135Y0072205D01*
X0964002Y0072119D01*
X0963867Y0072035D01*
X0963731Y0071956D01*
X0963592Y0071879D01*
X0963451Y0071807D01*
X0963309Y0071737D01*
X0963165Y0071672D01*
X0963019Y0071610D01*
X0962872Y0071552D01*
X0962723Y0071497D01*
X0962573Y0071446D01*
X0962422Y0071399D01*
X0962270Y0071356D01*
X0962117Y0071317D01*
X0961962Y0071281D01*
X0961807Y0071250D01*
X0961651Y0071222D01*
X0961495Y0071198D01*
X0961338Y0071178D01*
X0961180Y0071162D01*
X0961023Y0071150D01*
X0960864Y0071142D01*
X0960706Y0071138D01*
X0960548Y0071138D01*
X0960390Y0071142D01*
X0960231Y0071150D01*
X0960074Y0071162D01*
X0959916Y0071178D01*
X0959759Y0071198D01*
X0959603Y0071222D01*
X0959447Y0071250D01*
X0959292Y0071281D01*
X0959137Y0071317D01*
X0958984Y0071356D01*
X0958832Y0071399D01*
X0958681Y0071446D01*
X0958531Y0071497D01*
X0958382Y0071552D01*
X0958235Y0071610D01*
X0958089Y0071672D01*
X0957945Y0071737D01*
X0957803Y0071807D01*
X0957662Y0071879D01*
X0957523Y0071956D01*
X0957387Y0072035D01*
X0957252Y0072119D01*
X0957119Y0072205D01*
X0956989Y0072295D01*
X0956861Y0072388D01*
X0956735Y0072484D01*
X0956612Y0072584D01*
X0956491Y0072686D01*
X0956373Y0072791D01*
X0956258Y0072900D01*
X0956145Y0073011D01*
X0956035Y0073125D01*
X0955928Y0073242D01*
X0955824Y0073361D01*
X0955723Y0073483D01*
X0955626Y0073608D01*
X0955531Y0073735D01*
X0955440Y0073864D01*
X0955351Y0073995D01*
X0955267Y0074129D01*
X0955185Y0074265D01*
X0955107Y0074402D01*
X0955033Y0074542D01*
X0954962Y0074684D01*
X0954894Y0074827D01*
X0954830Y0074972D01*
X0954770Y0075118D01*
X0954714Y0075266D01*
X0954661Y0075415D01*
X0954612Y0075566D01*
X0954567Y0075718D01*
X0954526Y0075871D01*
X0954488Y0076024D01*
X0954455Y0076179D01*
X0954425Y0076335D01*
X0954399Y0076491D01*
X0954378Y0076648D01*
X0954360Y0076805D01*
X0954346Y0076963D01*
X0954336Y0077121D01*
X0954330Y0077279D01*
X0954328Y0077437D01*
D11*
X0115745Y0970429D03*
D12*
X0114433Y0965233D02*
X0112131Y0965233D01*
X0112131Y0960629D01*
X0114433Y0960629D01*
X0115200Y0961396D01*
X0115200Y0964466D01*
X0114433Y0965233D01*
X0116734Y0963698D02*
X0118269Y0965233D01*
X0118269Y0960629D01*
X0116734Y0960629D02*
X0119804Y0960629D01*
X0110596Y0960629D02*
X0107527Y0960629D01*
X0107527Y0965233D01*
X0110596Y0965233D01*
X0109061Y0962931D02*
X0107527Y0962931D01*
X0105992Y0960629D02*
X0102923Y0960629D01*
X0102923Y0965233D01*
X0112131Y1000708D02*
X0112131Y1005312D01*
X0114433Y1005312D01*
X0115200Y1004544D01*
X0115200Y1003010D01*
X0114433Y1002243D01*
X0112131Y1002243D01*
X0113665Y1002243D02*
X0115200Y1000708D01*
X0116735Y1000708D02*
X0119804Y1000708D01*
X0118269Y1000708D02*
X0118269Y1005312D01*
X0116735Y1003777D01*
M02*
