G75*
%MOIN*%
%OFA0B0*%
%FSLAX25Y25*%
%IPPOS*%
%LPD*%
%AMOC8*
5,1,8,0,0,1.08239X$1,22.5*
%
%ADD10C,0.01600*%
D10*
X0052046Y0051861D02*
X1034561Y0051861D01*
X1032963Y0050262D02*
X0053645Y0050262D01*
X0055243Y0048664D02*
X1031364Y0048664D01*
X1029766Y0047065D02*
X0056842Y0047065D01*
X0058440Y0045467D02*
X1028167Y0045467D01*
X1026569Y0043868D02*
X0060039Y0043868D01*
X0061040Y0042867D02*
X0048104Y0055803D01*
X0048104Y0945528D01*
X0063121Y0960545D01*
X0063852Y0962309D01*
X0063852Y1014031D01*
X0064977Y1015157D01*
X0167300Y1015157D01*
X0168425Y1014031D01*
X0168425Y0966246D01*
X0169156Y0964482D01*
X0174443Y0959195D01*
X0176207Y0958464D01*
X1025568Y0958464D01*
X1038504Y0945528D01*
X1038504Y0055803D01*
X1025568Y0042867D01*
X0061040Y0042867D01*
X0050448Y0053459D02*
X1036160Y0053459D01*
X1037758Y0055058D02*
X0048849Y0055058D01*
X0048104Y0056656D02*
X1038504Y0056656D01*
X1038504Y0058255D02*
X0048104Y0058255D01*
X0048104Y0059853D02*
X1038504Y0059853D01*
X1038504Y0061452D02*
X0965149Y0061452D01*
X0967038Y0061958D02*
X0970826Y0064145D01*
X0973919Y0067238D01*
X0976106Y0071025D01*
X0977238Y0075250D01*
X0977238Y0079624D01*
X0976106Y0083849D01*
X0973919Y0087636D01*
X0970826Y0090729D01*
X0967038Y0092916D01*
X0962814Y0094048D01*
X0958440Y0094048D01*
X0954215Y0092916D01*
X0950427Y0090729D01*
X0947335Y0087636D01*
X0945148Y0083849D01*
X0944016Y0079624D01*
X0944016Y0075250D01*
X0945148Y0071025D01*
X0947335Y0067238D01*
X0950427Y0064145D01*
X0954215Y0061958D01*
X0958440Y0060826D01*
X0962814Y0060826D01*
X0967038Y0061958D01*
X0968930Y0063050D02*
X1038504Y0063050D01*
X1038504Y0064649D02*
X0971330Y0064649D01*
X0972929Y0066247D02*
X1038504Y0066247D01*
X1038504Y0067846D02*
X0974270Y0067846D01*
X0975193Y0069444D02*
X1038504Y0069444D01*
X1038504Y0071043D02*
X0976110Y0071043D01*
X0976539Y0072641D02*
X1038504Y0072641D01*
X1038504Y0074240D02*
X0976967Y0074240D01*
X0977238Y0075838D02*
X1038504Y0075838D01*
X1038504Y0077437D02*
X0977238Y0077437D01*
X0977238Y0079036D02*
X1038504Y0079036D01*
X1038504Y0080634D02*
X0976967Y0080634D01*
X0976539Y0082233D02*
X1038504Y0082233D01*
X1038504Y0083831D02*
X0976110Y0083831D01*
X0975193Y0085430D02*
X1038504Y0085430D01*
X1038504Y0087028D02*
X0974270Y0087028D01*
X0972929Y0088627D02*
X1038504Y0088627D01*
X1038504Y0090225D02*
X0971330Y0090225D01*
X0968930Y0091824D02*
X1038504Y0091824D01*
X1038504Y0093422D02*
X0965149Y0093422D01*
X0956104Y0093422D02*
X0142315Y0093422D01*
X0144204Y0092916D02*
X0139979Y0094048D01*
X0135605Y0094048D01*
X0131380Y0092916D01*
X0127593Y0090729D01*
X0124500Y0087636D01*
X0122313Y0083849D01*
X0121181Y0079624D01*
X0121181Y0075250D01*
X0122313Y0071025D01*
X0124500Y0067238D01*
X0127593Y0064145D01*
X0131380Y0061958D01*
X0135605Y0060826D01*
X0139979Y0060826D01*
X0144204Y0061958D01*
X0147991Y0064145D01*
X0151084Y0067238D01*
X0153271Y0071025D01*
X0154403Y0075250D01*
X0154403Y0079624D01*
X0153271Y0083849D01*
X0151084Y0087636D01*
X0147991Y0090729D01*
X0144204Y0092916D01*
X0146096Y0091824D02*
X0952323Y0091824D01*
X0949923Y0090225D02*
X0148495Y0090225D01*
X0150094Y0088627D02*
X0948325Y0088627D01*
X0946983Y0087028D02*
X0151435Y0087028D01*
X0152358Y0085430D02*
X0946060Y0085430D01*
X0945143Y0083831D02*
X0153276Y0083831D01*
X0153704Y0082233D02*
X0944715Y0082233D01*
X0944286Y0080634D02*
X0154132Y0080634D01*
X0154403Y0079036D02*
X0944016Y0079036D01*
X0944016Y0077437D02*
X0154403Y0077437D01*
X0154403Y0075838D02*
X0944016Y0075838D01*
X0944286Y0074240D02*
X0154132Y0074240D01*
X0153704Y0072641D02*
X0944715Y0072641D01*
X0945143Y0071043D02*
X0153276Y0071043D01*
X0152358Y0069444D02*
X0946060Y0069444D01*
X0946983Y0067846D02*
X0151435Y0067846D01*
X0150094Y0066247D02*
X0948325Y0066247D01*
X0949923Y0064649D02*
X0148495Y0064649D01*
X0146096Y0063050D02*
X0952323Y0063050D01*
X0956104Y0061452D02*
X0142315Y0061452D01*
X0133269Y0061452D02*
X0048104Y0061452D01*
X0048104Y0063050D02*
X0129488Y0063050D01*
X0127089Y0064649D02*
X0048104Y0064649D01*
X0048104Y0066247D02*
X0125490Y0066247D01*
X0124149Y0067846D02*
X0048104Y0067846D01*
X0048104Y0069444D02*
X0123226Y0069444D01*
X0122308Y0071043D02*
X0048104Y0071043D01*
X0048104Y0072641D02*
X0121880Y0072641D01*
X0121452Y0074240D02*
X0048104Y0074240D01*
X0048104Y0075838D02*
X0121181Y0075838D01*
X0121181Y0077437D02*
X0048104Y0077437D01*
X0048104Y0079036D02*
X0121181Y0079036D01*
X0121452Y0080634D02*
X0048104Y0080634D01*
X0048104Y0082233D02*
X0121880Y0082233D01*
X0122308Y0083831D02*
X0048104Y0083831D01*
X0048104Y0085430D02*
X0123226Y0085430D01*
X0124149Y0087028D02*
X0048104Y0087028D01*
X0048104Y0088627D02*
X0125490Y0088627D01*
X0127089Y0090225D02*
X0048104Y0090225D01*
X0048104Y0091824D02*
X0129488Y0091824D01*
X0133269Y0093422D02*
X0048104Y0093422D01*
X0048104Y0095021D02*
X1038504Y0095021D01*
X1038504Y0096619D02*
X0048104Y0096619D01*
X0048104Y0098218D02*
X1038504Y0098218D01*
X1038504Y0099816D02*
X0048104Y0099816D01*
X0048104Y0101415D02*
X1038504Y0101415D01*
X1038504Y0103013D02*
X0048104Y0103013D01*
X0048104Y0104612D02*
X1038504Y0104612D01*
X1038504Y0106210D02*
X0048104Y0106210D01*
X0048104Y0107809D02*
X1038504Y0107809D01*
X1038504Y0109407D02*
X0048104Y0109407D01*
X0048104Y0111006D02*
X1038504Y0111006D01*
X1038504Y0112604D02*
X0048104Y0112604D01*
X0048104Y0114203D02*
X1038504Y0114203D01*
X1038504Y0115801D02*
X0048104Y0115801D01*
X0048104Y0117400D02*
X1038504Y0117400D01*
X1038504Y0118998D02*
X0048104Y0118998D01*
X0048104Y0120597D02*
X1038504Y0120597D01*
X1038504Y0122195D02*
X0048104Y0122195D01*
X0048104Y0123794D02*
X1038504Y0123794D01*
X1038504Y0125392D02*
X0048104Y0125392D01*
X0048104Y0126991D02*
X1038504Y0126991D01*
X1038504Y0128589D02*
X0048104Y0128589D01*
X0048104Y0130188D02*
X1038504Y0130188D01*
X1038504Y0131786D02*
X0048104Y0131786D01*
X0048104Y0133385D02*
X1038504Y0133385D01*
X1038504Y0134983D02*
X0048104Y0134983D01*
X0048104Y0136582D02*
X1038504Y0136582D01*
X1038504Y0138180D02*
X0048104Y0138180D01*
X0048104Y0139779D02*
X1038504Y0139779D01*
X1038504Y0141377D02*
X0048104Y0141377D01*
X0048104Y0142976D02*
X1038504Y0142976D01*
X1038504Y0144574D02*
X0048104Y0144574D01*
X0048104Y0146173D02*
X1038504Y0146173D01*
X1038504Y0147772D02*
X0048104Y0147772D01*
X0048104Y0149370D02*
X1038504Y0149370D01*
X1038504Y0150969D02*
X0048104Y0150969D01*
X0048104Y0152567D02*
X1038504Y0152567D01*
X1038504Y0154166D02*
X0048104Y0154166D01*
X0048104Y0155764D02*
X1038504Y0155764D01*
X1038504Y0157363D02*
X0048104Y0157363D01*
X0048104Y0158961D02*
X1038504Y0158961D01*
X1038504Y0160560D02*
X0048104Y0160560D01*
X0048104Y0162158D02*
X1038504Y0162158D01*
X1038504Y0163757D02*
X0048104Y0163757D01*
X0048104Y0165355D02*
X1038504Y0165355D01*
X1038504Y0166954D02*
X0048104Y0166954D01*
X0048104Y0168552D02*
X1038504Y0168552D01*
X1038504Y0170151D02*
X0048104Y0170151D01*
X0048104Y0171749D02*
X1038504Y0171749D01*
X1038504Y0173348D02*
X0048104Y0173348D01*
X0048104Y0174946D02*
X1038504Y0174946D01*
X1038504Y0176545D02*
X0048104Y0176545D01*
X0048104Y0178143D02*
X1038504Y0178143D01*
X1038504Y0179742D02*
X0048104Y0179742D01*
X0048104Y0181340D02*
X1038504Y0181340D01*
X1038504Y0182939D02*
X0048104Y0182939D01*
X0048104Y0184537D02*
X1038504Y0184537D01*
X1038504Y0186136D02*
X0048104Y0186136D01*
X0048104Y0187734D02*
X1038504Y0187734D01*
X1038504Y0189333D02*
X0048104Y0189333D01*
X0048104Y0190931D02*
X1038504Y0190931D01*
X1038504Y0192530D02*
X0048104Y0192530D01*
X0048104Y0194128D02*
X1038504Y0194128D01*
X1038504Y0195727D02*
X0048104Y0195727D01*
X0048104Y0197325D02*
X1038504Y0197325D01*
X1038504Y0198924D02*
X0048104Y0198924D01*
X0048104Y0200522D02*
X1038504Y0200522D01*
X1038504Y0202121D02*
X0048104Y0202121D01*
X0048104Y0203719D02*
X1038504Y0203719D01*
X1038504Y0205318D02*
X0048104Y0205318D01*
X0048104Y0206916D02*
X1038504Y0206916D01*
X1038504Y0208515D02*
X0048104Y0208515D01*
X0048104Y0210113D02*
X1038504Y0210113D01*
X1038504Y0211712D02*
X0048104Y0211712D01*
X0048104Y0213310D02*
X1038504Y0213310D01*
X1038504Y0214909D02*
X0048104Y0214909D01*
X0048104Y0216507D02*
X1038504Y0216507D01*
X1038504Y0218106D02*
X0048104Y0218106D01*
X0048104Y0219705D02*
X1038504Y0219705D01*
X1038504Y0221303D02*
X0048104Y0221303D01*
X0048104Y0222902D02*
X1038504Y0222902D01*
X1038504Y0224500D02*
X0048104Y0224500D01*
X0048104Y0226099D02*
X1038504Y0226099D01*
X1038504Y0227697D02*
X0048104Y0227697D01*
X0048104Y0229296D02*
X1038504Y0229296D01*
X1038504Y0230894D02*
X0048104Y0230894D01*
X0048104Y0232493D02*
X1038504Y0232493D01*
X1038504Y0234091D02*
X0048104Y0234091D01*
X0048104Y0235690D02*
X1038504Y0235690D01*
X1038504Y0237288D02*
X0048104Y0237288D01*
X0048104Y0238887D02*
X1038504Y0238887D01*
X1038504Y0240485D02*
X0048104Y0240485D01*
X0048104Y0242084D02*
X1038504Y0242084D01*
X1038504Y0243682D02*
X0048104Y0243682D01*
X0048104Y0245281D02*
X1038504Y0245281D01*
X1038504Y0246879D02*
X0048104Y0246879D01*
X0048104Y0248478D02*
X1038504Y0248478D01*
X1038504Y0250076D02*
X0048104Y0250076D01*
X0048104Y0251675D02*
X1038504Y0251675D01*
X1038504Y0253273D02*
X0048104Y0253273D01*
X0048104Y0254872D02*
X1038504Y0254872D01*
X1038504Y0256470D02*
X0048104Y0256470D01*
X0048104Y0258069D02*
X1038504Y0258069D01*
X1038504Y0259667D02*
X0048104Y0259667D01*
X0048104Y0261266D02*
X1038504Y0261266D01*
X1038504Y0262864D02*
X0048104Y0262864D01*
X0048104Y0264463D02*
X1038504Y0264463D01*
X1038504Y0266061D02*
X0048104Y0266061D01*
X0048104Y0267660D02*
X1038504Y0267660D01*
X1038504Y0269258D02*
X0048104Y0269258D01*
X0048104Y0270857D02*
X1038504Y0270857D01*
X1038504Y0272455D02*
X0048104Y0272455D01*
X0048104Y0274054D02*
X1038504Y0274054D01*
X1038504Y0275652D02*
X0048104Y0275652D01*
X0048104Y0277251D02*
X1038504Y0277251D01*
X1038504Y0278849D02*
X0048104Y0278849D01*
X0048104Y0280448D02*
X1038504Y0280448D01*
X1038504Y0282046D02*
X0048104Y0282046D01*
X0048104Y0283645D02*
X1038504Y0283645D01*
X1038504Y0285243D02*
X0048104Y0285243D01*
X0048104Y0286842D02*
X1038504Y0286842D01*
X1038504Y0288441D02*
X0048104Y0288441D01*
X0048104Y0290039D02*
X1038504Y0290039D01*
X1038504Y0291638D02*
X0048104Y0291638D01*
X0048104Y0293236D02*
X1038504Y0293236D01*
X1038504Y0294835D02*
X0048104Y0294835D01*
X0048104Y0296433D02*
X1038504Y0296433D01*
X1038504Y0298032D02*
X0048104Y0298032D01*
X0048104Y0299630D02*
X1038504Y0299630D01*
X1038504Y0301229D02*
X0048104Y0301229D01*
X0048104Y0302827D02*
X1038504Y0302827D01*
X1038504Y0304426D02*
X0048104Y0304426D01*
X0048104Y0306024D02*
X1038504Y0306024D01*
X1038504Y0307623D02*
X0048104Y0307623D01*
X0048104Y0309221D02*
X1038504Y0309221D01*
X1038504Y0310820D02*
X0048104Y0310820D01*
X0048104Y0312418D02*
X1038504Y0312418D01*
X1038504Y0314017D02*
X0048104Y0314017D01*
X0048104Y0315615D02*
X1038504Y0315615D01*
X1038504Y0317214D02*
X0048104Y0317214D01*
X0048104Y0318812D02*
X1038504Y0318812D01*
X1038504Y0320411D02*
X0048104Y0320411D01*
X0048104Y0322009D02*
X1038504Y0322009D01*
X1038504Y0323608D02*
X0048104Y0323608D01*
X0048104Y0325206D02*
X1038504Y0325206D01*
X1038504Y0326805D02*
X0048104Y0326805D01*
X0048104Y0328403D02*
X1038504Y0328403D01*
X1038504Y0330002D02*
X0048104Y0330002D01*
X0048104Y0331600D02*
X1038504Y0331600D01*
X1038504Y0333199D02*
X0048104Y0333199D01*
X0048104Y0334797D02*
X1038504Y0334797D01*
X1038504Y0336396D02*
X0048104Y0336396D01*
X0048104Y0337994D02*
X1038504Y0337994D01*
X1038504Y0339593D02*
X0048104Y0339593D01*
X0048104Y0341191D02*
X1038504Y0341191D01*
X1038504Y0342790D02*
X0048104Y0342790D01*
X0048104Y0344388D02*
X1038504Y0344388D01*
X1038504Y0345987D02*
X0048104Y0345987D01*
X0048104Y0347585D02*
X1038504Y0347585D01*
X1038504Y0349184D02*
X0048104Y0349184D01*
X0048104Y0350782D02*
X1038504Y0350782D01*
X1038504Y0352381D02*
X0048104Y0352381D01*
X0048104Y0353979D02*
X1038504Y0353979D01*
X1038504Y0355578D02*
X0048104Y0355578D01*
X0048104Y0357176D02*
X1038504Y0357176D01*
X1038504Y0358775D02*
X0048104Y0358775D01*
X0048104Y0360374D02*
X1038504Y0360374D01*
X1038504Y0361972D02*
X0048104Y0361972D01*
X0048104Y0363571D02*
X1038504Y0363571D01*
X1038504Y0365169D02*
X0048104Y0365169D01*
X0048104Y0366768D02*
X1038504Y0366768D01*
X1038504Y0368366D02*
X0048104Y0368366D01*
X0048104Y0369965D02*
X1038504Y0369965D01*
X1038504Y0371563D02*
X0048104Y0371563D01*
X0048104Y0373162D02*
X1038504Y0373162D01*
X1038504Y0374760D02*
X0048104Y0374760D01*
X0048104Y0376359D02*
X1038504Y0376359D01*
X1038504Y0377957D02*
X0048104Y0377957D01*
X0048104Y0379556D02*
X1038504Y0379556D01*
X1038504Y0381154D02*
X0048104Y0381154D01*
X0048104Y0382753D02*
X1038504Y0382753D01*
X1038504Y0384351D02*
X0048104Y0384351D01*
X0048104Y0385950D02*
X1038504Y0385950D01*
X1038504Y0387548D02*
X0048104Y0387548D01*
X0048104Y0389147D02*
X1038504Y0389147D01*
X1038504Y0390745D02*
X0555702Y0390745D01*
X0555621Y0390698D02*
X0559409Y0392885D01*
X0562501Y0395978D01*
X0564688Y0399766D01*
X0565820Y0403990D01*
X0565820Y0408364D01*
X0564688Y0412589D01*
X0562501Y0416377D01*
X0559409Y0419469D01*
X0555621Y0421656D01*
X0551396Y0422788D01*
X0547022Y0422788D01*
X0542798Y0421656D01*
X0539010Y0419469D01*
X0535917Y0416377D01*
X0533730Y0412589D01*
X0532598Y0408364D01*
X0532598Y0403990D01*
X0533730Y0399766D01*
X0535917Y0395978D01*
X0539010Y0392885D01*
X0542798Y0390698D01*
X0547022Y0389566D01*
X0551396Y0389566D01*
X0555621Y0390698D01*
X0558471Y0392344D02*
X1038504Y0392344D01*
X1038504Y0393942D02*
X0560466Y0393942D01*
X0562064Y0395541D02*
X1038504Y0395541D01*
X1038504Y0397139D02*
X0563172Y0397139D01*
X0564095Y0398738D02*
X1038504Y0398738D01*
X1038504Y0400336D02*
X0564841Y0400336D01*
X0565270Y0401935D02*
X1038504Y0401935D01*
X1038504Y0403533D02*
X0565698Y0403533D01*
X0565820Y0405132D02*
X1038504Y0405132D01*
X1038504Y0406730D02*
X0565820Y0406730D01*
X0565820Y0408329D02*
X1038504Y0408329D01*
X1038504Y0409927D02*
X0565401Y0409927D01*
X0564973Y0411526D02*
X1038504Y0411526D01*
X1038504Y0413124D02*
X0564379Y0413124D01*
X0563456Y0414723D02*
X1038504Y0414723D01*
X1038504Y0416321D02*
X0562533Y0416321D01*
X0560958Y0417920D02*
X1038504Y0417920D01*
X1038504Y0419518D02*
X0559324Y0419518D01*
X0556555Y0421117D02*
X1038504Y0421117D01*
X1038504Y0422715D02*
X0551668Y0422715D01*
X0546751Y0422715D02*
X0048104Y0422715D01*
X0048104Y0421117D02*
X0541864Y0421117D01*
X0539095Y0419518D02*
X0048104Y0419518D01*
X0048104Y0417920D02*
X0537461Y0417920D01*
X0535885Y0416321D02*
X0048104Y0416321D01*
X0048104Y0414723D02*
X0534962Y0414723D01*
X0534040Y0413124D02*
X0048104Y0413124D01*
X0048104Y0411526D02*
X0533446Y0411526D01*
X0533017Y0409927D02*
X0048104Y0409927D01*
X0048104Y0408329D02*
X0532598Y0408329D01*
X0532598Y0406730D02*
X0048104Y0406730D01*
X0048104Y0405132D02*
X0532598Y0405132D01*
X0532721Y0403533D02*
X0048104Y0403533D01*
X0048104Y0401935D02*
X0533149Y0401935D01*
X0533577Y0400336D02*
X0048104Y0400336D01*
X0048104Y0398738D02*
X0534324Y0398738D01*
X0535247Y0397139D02*
X0048104Y0397139D01*
X0048104Y0395541D02*
X0536354Y0395541D01*
X0537953Y0393942D02*
X0048104Y0393942D01*
X0048104Y0392344D02*
X0539947Y0392344D01*
X0542716Y0390745D02*
X0048104Y0390745D01*
X0048104Y0424314D02*
X1038504Y0424314D01*
X1038504Y0425912D02*
X0048104Y0425912D01*
X0048104Y0427511D02*
X1038504Y0427511D01*
X1038504Y0429109D02*
X0048104Y0429109D01*
X0048104Y0430708D02*
X1038504Y0430708D01*
X1038504Y0432307D02*
X0048104Y0432307D01*
X0048104Y0433905D02*
X1038504Y0433905D01*
X1038504Y0435504D02*
X0048104Y0435504D01*
X0048104Y0437102D02*
X1038504Y0437102D01*
X1038504Y0438701D02*
X0048104Y0438701D01*
X0048104Y0440299D02*
X1038504Y0440299D01*
X1038504Y0441898D02*
X0048104Y0441898D01*
X0048104Y0443496D02*
X1038504Y0443496D01*
X1038504Y0445095D02*
X0048104Y0445095D01*
X0048104Y0446693D02*
X1038504Y0446693D01*
X1038504Y0448292D02*
X0048104Y0448292D01*
X0048104Y0449890D02*
X1038504Y0449890D01*
X1038504Y0451489D02*
X0048104Y0451489D01*
X0048104Y0453087D02*
X1038504Y0453087D01*
X1038504Y0454686D02*
X0048104Y0454686D01*
X0048104Y0456284D02*
X1038504Y0456284D01*
X1038504Y0457883D02*
X0048104Y0457883D01*
X0048104Y0459481D02*
X1038504Y0459481D01*
X1038504Y0461080D02*
X0048104Y0461080D01*
X0048104Y0462678D02*
X1038504Y0462678D01*
X1038504Y0464277D02*
X0048104Y0464277D01*
X0048104Y0465875D02*
X1038504Y0465875D01*
X1038504Y0467474D02*
X0048104Y0467474D01*
X0048104Y0469072D02*
X1038504Y0469072D01*
X1038504Y0470671D02*
X0048104Y0470671D01*
X0048104Y0472269D02*
X1038504Y0472269D01*
X1038504Y0473868D02*
X0048104Y0473868D01*
X0048104Y0475466D02*
X1038504Y0475466D01*
X1038504Y0477065D02*
X0048104Y0477065D01*
X0048104Y0478663D02*
X1038504Y0478663D01*
X1038504Y0480262D02*
X0048104Y0480262D01*
X0048104Y0481860D02*
X1038504Y0481860D01*
X1038504Y0483459D02*
X0048104Y0483459D01*
X0048104Y0485057D02*
X1038504Y0485057D01*
X1038504Y0486656D02*
X0048104Y0486656D01*
X0048104Y0488254D02*
X1038504Y0488254D01*
X1038504Y0489853D02*
X0048104Y0489853D01*
X0048104Y0491451D02*
X1038504Y0491451D01*
X1038504Y0493050D02*
X0048104Y0493050D01*
X0048104Y0494648D02*
X1038504Y0494648D01*
X1038504Y0496247D02*
X0048104Y0496247D01*
X0048104Y0497845D02*
X1038504Y0497845D01*
X1038504Y0499444D02*
X0048104Y0499444D01*
X0048104Y0501043D02*
X1038504Y0501043D01*
X1038504Y0502641D02*
X0048104Y0502641D01*
X0048104Y0504240D02*
X1038504Y0504240D01*
X1038504Y0505838D02*
X0048104Y0505838D01*
X0048104Y0507437D02*
X1038504Y0507437D01*
X1038504Y0509035D02*
X0048104Y0509035D01*
X0048104Y0510634D02*
X1038504Y0510634D01*
X1038504Y0512232D02*
X0048104Y0512232D01*
X0048104Y0513831D02*
X1038504Y0513831D01*
X1038504Y0515429D02*
X0048104Y0515429D01*
X0048104Y0517028D02*
X1038504Y0517028D01*
X1038504Y0518626D02*
X0048104Y0518626D01*
X0048104Y0520225D02*
X1038504Y0520225D01*
X1038504Y0521823D02*
X0048104Y0521823D01*
X0048104Y0523422D02*
X1038504Y0523422D01*
X1038504Y0525020D02*
X0048104Y0525020D01*
X0048104Y0526619D02*
X1038504Y0526619D01*
X1038504Y0528217D02*
X0048104Y0528217D01*
X0048104Y0529816D02*
X1038504Y0529816D01*
X1038504Y0531414D02*
X0048104Y0531414D01*
X0048104Y0533013D02*
X1038504Y0533013D01*
X1038504Y0534611D02*
X0048104Y0534611D01*
X0048104Y0536210D02*
X1038504Y0536210D01*
X1038504Y0537808D02*
X0048104Y0537808D01*
X0048104Y0539407D02*
X1038504Y0539407D01*
X1038504Y0541005D02*
X0048104Y0541005D01*
X0048104Y0542604D02*
X1038504Y0542604D01*
X1038504Y0544202D02*
X0048104Y0544202D01*
X0048104Y0545801D02*
X1038504Y0545801D01*
X1038504Y0547399D02*
X0048104Y0547399D01*
X0048104Y0548998D02*
X1038504Y0548998D01*
X1038504Y0550596D02*
X0048104Y0550596D01*
X0048104Y0552195D02*
X0542660Y0552195D01*
X0542798Y0552115D02*
X0547022Y0550983D01*
X0551396Y0550983D01*
X0555621Y0552115D01*
X0559409Y0554302D01*
X0562501Y0557395D01*
X0564688Y0561183D01*
X0565820Y0565408D01*
X0565820Y0569781D01*
X0564688Y0574006D01*
X0562501Y0577794D01*
X0559409Y0580887D01*
X0555621Y0583073D01*
X0551396Y0584205D01*
X0547022Y0584205D01*
X0542798Y0583073D01*
X0539010Y0580887D01*
X0535917Y0577794D01*
X0533730Y0574006D01*
X0532598Y0569781D01*
X0532598Y0565408D01*
X0533730Y0561183D01*
X0535917Y0557395D01*
X0539010Y0554302D01*
X0542798Y0552115D01*
X0539891Y0553793D02*
X0048104Y0553793D01*
X0048104Y0555392D02*
X0537920Y0555392D01*
X0536322Y0556990D02*
X0048104Y0556990D01*
X0048104Y0558589D02*
X0535228Y0558589D01*
X0534305Y0560187D02*
X0048104Y0560187D01*
X0048104Y0561786D02*
X0533569Y0561786D01*
X0533140Y0563384D02*
X0048104Y0563384D01*
X0048104Y0564983D02*
X0532712Y0564983D01*
X0532598Y0566581D02*
X0048104Y0566581D01*
X0048104Y0568180D02*
X0532598Y0568180D01*
X0532598Y0569778D02*
X0048104Y0569778D01*
X0048104Y0571377D02*
X0533026Y0571377D01*
X0533454Y0572976D02*
X0048104Y0572976D01*
X0048104Y0574574D02*
X0534058Y0574574D01*
X0534981Y0576173D02*
X0048104Y0576173D01*
X0048104Y0577771D02*
X0535904Y0577771D01*
X0537493Y0579370D02*
X0048104Y0579370D01*
X0048104Y0580968D02*
X0539151Y0580968D01*
X0541920Y0582567D02*
X0048104Y0582567D01*
X0048104Y0584165D02*
X0546872Y0584165D01*
X0551547Y0584165D02*
X1038504Y0584165D01*
X1038504Y0582567D02*
X0556499Y0582567D01*
X0559268Y0580968D02*
X1038504Y0580968D01*
X1038504Y0579370D02*
X0560926Y0579370D01*
X0562515Y0577771D02*
X1038504Y0577771D01*
X1038504Y0576173D02*
X0563438Y0576173D01*
X0564360Y0574574D02*
X1038504Y0574574D01*
X1038504Y0572976D02*
X0564964Y0572976D01*
X0565393Y0571377D02*
X1038504Y0571377D01*
X1038504Y0569778D02*
X0565820Y0569778D01*
X0565820Y0568180D02*
X1038504Y0568180D01*
X1038504Y0566581D02*
X0565820Y0566581D01*
X0565707Y0564983D02*
X1038504Y0564983D01*
X1038504Y0563384D02*
X0565278Y0563384D01*
X0564850Y0561786D02*
X1038504Y0561786D01*
X1038504Y0560187D02*
X0564114Y0560187D01*
X0563191Y0558589D02*
X1038504Y0558589D01*
X1038504Y0556990D02*
X0562097Y0556990D01*
X0560498Y0555392D02*
X1038504Y0555392D01*
X1038504Y0553793D02*
X0558527Y0553793D01*
X0555758Y0552195D02*
X1038504Y0552195D01*
X1038504Y0585764D02*
X0048104Y0585764D01*
X0048104Y0587362D02*
X1038504Y0587362D01*
X1038504Y0588961D02*
X0048104Y0588961D01*
X0048104Y0590559D02*
X1038504Y0590559D01*
X1038504Y0592158D02*
X0048104Y0592158D01*
X0048104Y0593756D02*
X1038504Y0593756D01*
X1038504Y0595355D02*
X0048104Y0595355D01*
X0048104Y0596953D02*
X1038504Y0596953D01*
X1038504Y0598552D02*
X0048104Y0598552D01*
X0048104Y0600150D02*
X1038504Y0600150D01*
X1038504Y0601749D02*
X0048104Y0601749D01*
X0048104Y0603347D02*
X1038504Y0603347D01*
X1038504Y0604946D02*
X0048104Y0604946D01*
X0048104Y0606544D02*
X1038504Y0606544D01*
X1038504Y0608143D02*
X0048104Y0608143D01*
X0048104Y0609741D02*
X1038504Y0609741D01*
X1038504Y0611340D02*
X0048104Y0611340D01*
X0048104Y0612938D02*
X1038504Y0612938D01*
X1038504Y0614537D02*
X0048104Y0614537D01*
X0048104Y0616135D02*
X1038504Y0616135D01*
X1038504Y0617734D02*
X0048104Y0617734D01*
X0048104Y0619332D02*
X1038504Y0619332D01*
X1038504Y0620931D02*
X0048104Y0620931D01*
X0048104Y0622529D02*
X1038504Y0622529D01*
X1038504Y0624128D02*
X0048104Y0624128D01*
X0048104Y0625726D02*
X1038504Y0625726D01*
X1038504Y0627325D02*
X0048104Y0627325D01*
X0048104Y0628923D02*
X1038504Y0628923D01*
X1038504Y0630522D02*
X0048104Y0630522D01*
X0048104Y0632120D02*
X1038504Y0632120D01*
X1038504Y0633719D02*
X0048104Y0633719D01*
X0048104Y0635317D02*
X1038504Y0635317D01*
X1038504Y0636916D02*
X0048104Y0636916D01*
X0048104Y0638514D02*
X1038504Y0638514D01*
X1038504Y0640113D02*
X0048104Y0640113D01*
X0048104Y0641712D02*
X1038504Y0641712D01*
X1038504Y0643310D02*
X0048104Y0643310D01*
X0048104Y0644909D02*
X1038504Y0644909D01*
X1038504Y0646507D02*
X0048104Y0646507D01*
X0048104Y0648106D02*
X1038504Y0648106D01*
X1038504Y0649704D02*
X0048104Y0649704D01*
X0048104Y0651303D02*
X1038504Y0651303D01*
X1038504Y0652901D02*
X0048104Y0652901D01*
X0048104Y0654500D02*
X1038504Y0654500D01*
X1038504Y0656098D02*
X0048104Y0656098D01*
X0048104Y0657697D02*
X1038504Y0657697D01*
X1038504Y0659295D02*
X0048104Y0659295D01*
X0048104Y0660894D02*
X1038504Y0660894D01*
X1038504Y0662492D02*
X0048104Y0662492D01*
X0048104Y0664091D02*
X1038504Y0664091D01*
X1038504Y0665689D02*
X0048104Y0665689D01*
X0048104Y0667288D02*
X1038504Y0667288D01*
X1038504Y0668886D02*
X0048104Y0668886D01*
X0048104Y0670485D02*
X1038504Y0670485D01*
X1038504Y0672083D02*
X0048104Y0672083D01*
X0048104Y0673682D02*
X1038504Y0673682D01*
X1038504Y0675280D02*
X0048104Y0675280D01*
X0048104Y0676879D02*
X1038504Y0676879D01*
X1038504Y0678477D02*
X0048104Y0678477D01*
X0048104Y0680076D02*
X1038504Y0680076D01*
X1038504Y0681674D02*
X0048104Y0681674D01*
X0048104Y0683273D02*
X1038504Y0683273D01*
X1038504Y0684871D02*
X0048104Y0684871D01*
X0048104Y0686470D02*
X1038504Y0686470D01*
X1038504Y0688068D02*
X0048104Y0688068D01*
X0048104Y0689667D02*
X1038504Y0689667D01*
X1038504Y0691265D02*
X0048104Y0691265D01*
X0048104Y0692864D02*
X1038504Y0692864D01*
X1038504Y0694462D02*
X0048104Y0694462D01*
X0048104Y0696061D02*
X1038504Y0696061D01*
X1038504Y0697659D02*
X0048104Y0697659D01*
X0048104Y0699258D02*
X1038504Y0699258D01*
X1038504Y0700856D02*
X0048104Y0700856D01*
X0048104Y0702455D02*
X1038504Y0702455D01*
X1038504Y0704053D02*
X0048104Y0704053D01*
X0048104Y0705652D02*
X1038504Y0705652D01*
X1038504Y0707250D02*
X0048104Y0707250D01*
X0048104Y0708849D02*
X1038504Y0708849D01*
X1038504Y0710447D02*
X0048104Y0710447D01*
X0048104Y0712046D02*
X1038504Y0712046D01*
X1038504Y0713645D02*
X0048104Y0713645D01*
X0048104Y0715243D02*
X1038504Y0715243D01*
X1038504Y0716842D02*
X0048104Y0716842D01*
X0048104Y0718440D02*
X1038504Y0718440D01*
X1038504Y0720039D02*
X0048104Y0720039D01*
X0048104Y0721637D02*
X1038504Y0721637D01*
X1038504Y0723236D02*
X0048104Y0723236D01*
X0048104Y0724834D02*
X1038504Y0724834D01*
X1038504Y0726433D02*
X0048104Y0726433D01*
X0048104Y0728031D02*
X1038504Y0728031D01*
X1038504Y0729630D02*
X0048104Y0729630D01*
X0048104Y0731228D02*
X1038504Y0731228D01*
X1038504Y0732827D02*
X0048104Y0732827D01*
X0048104Y0734425D02*
X1038504Y0734425D01*
X1038504Y0736024D02*
X0048104Y0736024D01*
X0048104Y0737622D02*
X1038504Y0737622D01*
X1038504Y0739221D02*
X0048104Y0739221D01*
X0048104Y0740819D02*
X1038504Y0740819D01*
X1038504Y0742418D02*
X0048104Y0742418D01*
X0048104Y0744016D02*
X1038504Y0744016D01*
X1038504Y0745615D02*
X0048104Y0745615D01*
X0048104Y0747213D02*
X1038504Y0747213D01*
X1038504Y0748812D02*
X0048104Y0748812D01*
X0048104Y0750410D02*
X1038504Y0750410D01*
X1038504Y0752009D02*
X0048104Y0752009D01*
X0048104Y0753607D02*
X1038504Y0753607D01*
X1038504Y0755206D02*
X0048104Y0755206D01*
X0048104Y0756804D02*
X1038504Y0756804D01*
X1038504Y0758403D02*
X0048104Y0758403D01*
X0048104Y0760001D02*
X1038504Y0760001D01*
X1038504Y0761600D02*
X0048104Y0761600D01*
X0048104Y0763198D02*
X1038504Y0763198D01*
X1038504Y0764797D02*
X0048104Y0764797D01*
X0048104Y0766395D02*
X1038504Y0766395D01*
X1038504Y0767994D02*
X0048104Y0767994D01*
X0048104Y0769592D02*
X1038504Y0769592D01*
X1038504Y0771191D02*
X0048104Y0771191D01*
X0048104Y0772789D02*
X1038504Y0772789D01*
X1038504Y0774388D02*
X0048104Y0774388D01*
X0048104Y0775986D02*
X1038504Y0775986D01*
X1038504Y0777585D02*
X0048104Y0777585D01*
X0048104Y0779183D02*
X1038504Y0779183D01*
X1038504Y0780782D02*
X0048104Y0780782D01*
X0048104Y0782380D02*
X1038504Y0782380D01*
X1038504Y0783979D02*
X0048104Y0783979D01*
X0048104Y0785578D02*
X1038504Y0785578D01*
X1038504Y0787176D02*
X0048104Y0787176D01*
X0048104Y0788775D02*
X1038504Y0788775D01*
X1038504Y0790373D02*
X0048104Y0790373D01*
X0048104Y0791972D02*
X1038504Y0791972D01*
X1038504Y0793570D02*
X0048104Y0793570D01*
X0048104Y0795169D02*
X1038504Y0795169D01*
X1038504Y0796767D02*
X0048104Y0796767D01*
X0048104Y0798366D02*
X1038504Y0798366D01*
X1038504Y0799964D02*
X0048104Y0799964D01*
X0048104Y0801563D02*
X1038504Y0801563D01*
X1038504Y0803161D02*
X0048104Y0803161D01*
X0048104Y0804760D02*
X1038504Y0804760D01*
X1038504Y0806358D02*
X0048104Y0806358D01*
X0048104Y0807957D02*
X1038504Y0807957D01*
X1038504Y0809555D02*
X0048104Y0809555D01*
X0048104Y0811154D02*
X1038504Y0811154D01*
X1038504Y0812752D02*
X0048104Y0812752D01*
X0048104Y0814351D02*
X1038504Y0814351D01*
X1038504Y0815949D02*
X0048104Y0815949D01*
X0048104Y0817548D02*
X1038504Y0817548D01*
X1038504Y0819146D02*
X0048104Y0819146D01*
X0048104Y0820745D02*
X1038504Y0820745D01*
X1038504Y0822343D02*
X0048104Y0822343D01*
X0048104Y0823942D02*
X1038504Y0823942D01*
X1038504Y0825540D02*
X0048104Y0825540D01*
X0048104Y0827139D02*
X1038504Y0827139D01*
X1038504Y0828737D02*
X0048104Y0828737D01*
X0048104Y0830336D02*
X1038504Y0830336D01*
X1038504Y0831934D02*
X0048104Y0831934D01*
X0048104Y0833533D02*
X1038504Y0833533D01*
X1038504Y0835131D02*
X0048104Y0835131D01*
X0048104Y0836730D02*
X1038504Y0836730D01*
X1038504Y0838328D02*
X0048104Y0838328D01*
X0048104Y0839927D02*
X1038504Y0839927D01*
X1038504Y0841525D02*
X0048104Y0841525D01*
X0048104Y0843124D02*
X1038504Y0843124D01*
X1038504Y0844722D02*
X0048104Y0844722D01*
X0048104Y0846321D02*
X1038504Y0846321D01*
X1038504Y0847919D02*
X0048104Y0847919D01*
X0048104Y0849518D02*
X1038504Y0849518D01*
X1038504Y0851116D02*
X0048104Y0851116D01*
X0048104Y0852715D02*
X1038504Y0852715D01*
X1038504Y0854314D02*
X0048104Y0854314D01*
X0048104Y0855912D02*
X1038504Y0855912D01*
X1038504Y0857511D02*
X0048104Y0857511D01*
X0048104Y0859109D02*
X1038504Y0859109D01*
X1038504Y0860708D02*
X0048104Y0860708D01*
X0048104Y0862306D02*
X1038504Y0862306D01*
X1038504Y0863905D02*
X0048104Y0863905D01*
X0048104Y0865503D02*
X1038504Y0865503D01*
X1038504Y0867102D02*
X0048104Y0867102D01*
X0048104Y0868700D02*
X1038504Y0868700D01*
X1038504Y0870299D02*
X0048104Y0870299D01*
X0048104Y0871897D02*
X1038504Y0871897D01*
X1038504Y0873496D02*
X0048104Y0873496D01*
X0048104Y0875094D02*
X1038504Y0875094D01*
X1038504Y0876693D02*
X0048104Y0876693D01*
X0048104Y0878291D02*
X1038504Y0878291D01*
X1038504Y0879890D02*
X0048104Y0879890D01*
X0048104Y0881488D02*
X1038504Y0881488D01*
X1038504Y0883087D02*
X0048104Y0883087D01*
X0048104Y0884685D02*
X0131781Y0884685D01*
X0131380Y0884793D02*
X0135605Y0883661D01*
X0139979Y0883661D01*
X0144204Y0884793D01*
X0147991Y0886980D01*
X0151084Y0890072D01*
X0153271Y0893860D01*
X0154403Y0898085D01*
X0154403Y0902459D01*
X0153271Y0906683D01*
X0151084Y0910471D01*
X0147991Y0913564D01*
X0144204Y0915751D01*
X0139979Y0916883D01*
X0135605Y0916883D01*
X0131380Y0915751D01*
X0127593Y0913564D01*
X0124500Y0910471D01*
X0122313Y0906683D01*
X0121181Y0902459D01*
X0121181Y0898085D01*
X0122313Y0893860D01*
X0124500Y0890072D01*
X0127593Y0886980D01*
X0131380Y0884793D01*
X0128798Y0886284D02*
X0048104Y0886284D01*
X0048104Y0887882D02*
X0126690Y0887882D01*
X0125091Y0889481D02*
X0048104Y0889481D01*
X0048104Y0891079D02*
X0123918Y0891079D01*
X0122996Y0892678D02*
X0048104Y0892678D01*
X0048104Y0894276D02*
X0122201Y0894276D01*
X0121773Y0895875D02*
X0048104Y0895875D01*
X0048104Y0897473D02*
X0121345Y0897473D01*
X0121181Y0899072D02*
X0048104Y0899072D01*
X0048104Y0900670D02*
X0121181Y0900670D01*
X0121181Y0902269D02*
X0048104Y0902269D01*
X0048104Y0903867D02*
X0121558Y0903867D01*
X0121987Y0905466D02*
X0048104Y0905466D01*
X0048104Y0907064D02*
X0122533Y0907064D01*
X0123456Y0908663D02*
X0048104Y0908663D01*
X0048104Y0910261D02*
X0124379Y0910261D01*
X0125889Y0911860D02*
X0048104Y0911860D01*
X0048104Y0913458D02*
X0127487Y0913458D01*
X0130179Y0915057D02*
X0048104Y0915057D01*
X0048104Y0916655D02*
X0134757Y0916655D01*
X0140827Y0916655D02*
X0957592Y0916655D01*
X0958440Y0916883D02*
X0954215Y0915751D01*
X0950427Y0913564D01*
X0947335Y0910471D01*
X0945148Y0906683D01*
X0944016Y0902459D01*
X0944016Y0898085D01*
X0945148Y0893860D01*
X0947335Y0890072D01*
X0950427Y0886980D01*
X0954215Y0884793D01*
X0958440Y0883661D01*
X0962814Y0883661D01*
X0967038Y0884793D01*
X0970826Y0886980D01*
X0973919Y0890072D01*
X0976106Y0893860D01*
X0977238Y0898085D01*
X0977238Y0902459D01*
X0976106Y0906683D01*
X0973919Y0910471D01*
X0970826Y0913564D01*
X0967038Y0915751D01*
X0962814Y0916883D01*
X0958440Y0916883D01*
X0963662Y0916655D02*
X1038504Y0916655D01*
X1038504Y0915057D02*
X0968240Y0915057D01*
X0970931Y0913458D02*
X1038504Y0913458D01*
X1038504Y0911860D02*
X0972530Y0911860D01*
X0974040Y0910261D02*
X1038504Y0910261D01*
X1038504Y0908663D02*
X0974963Y0908663D01*
X0975886Y0907064D02*
X1038504Y0907064D01*
X1038504Y0905466D02*
X0976432Y0905466D01*
X0976860Y0903867D02*
X1038504Y0903867D01*
X1038504Y0902269D02*
X0977238Y0902269D01*
X0977238Y0900670D02*
X1038504Y0900670D01*
X1038504Y0899072D02*
X0977238Y0899072D01*
X0977074Y0897473D02*
X1038504Y0897473D01*
X1038504Y0895875D02*
X0976645Y0895875D01*
X0976217Y0894276D02*
X1038504Y0894276D01*
X1038504Y0892678D02*
X0975423Y0892678D01*
X0974500Y0891079D02*
X1038504Y0891079D01*
X1038504Y0889481D02*
X0973327Y0889481D01*
X0971729Y0887882D02*
X1038504Y0887882D01*
X1038504Y0886284D02*
X0969621Y0886284D01*
X0966637Y0884685D02*
X1038504Y0884685D01*
X1038504Y0918254D02*
X0048104Y0918254D01*
X0048104Y0919852D02*
X1038504Y0919852D01*
X1038504Y0921451D02*
X0048104Y0921451D01*
X0048104Y0923049D02*
X1038504Y0923049D01*
X1038504Y0924648D02*
X0048104Y0924648D01*
X0048104Y0926247D02*
X1038504Y0926247D01*
X1038504Y0927845D02*
X0048104Y0927845D01*
X0048104Y0929444D02*
X1038504Y0929444D01*
X1038504Y0931042D02*
X0048104Y0931042D01*
X0048104Y0932641D02*
X1038504Y0932641D01*
X1038504Y0934239D02*
X0048104Y0934239D01*
X0048104Y0935838D02*
X1038504Y0935838D01*
X1038504Y0937436D02*
X0048104Y0937436D01*
X0048104Y0939035D02*
X1038504Y0939035D01*
X1038504Y0940633D02*
X0048104Y0940633D01*
X0048104Y0942232D02*
X1038504Y0942232D01*
X1038504Y0943830D02*
X0048104Y0943830D01*
X0048104Y0945429D02*
X1038504Y0945429D01*
X1037004Y0947027D02*
X0049603Y0947027D01*
X0051202Y0948626D02*
X1035406Y0948626D01*
X1033807Y0950224D02*
X0052800Y0950224D01*
X0054399Y0951823D02*
X1032209Y0951823D01*
X1030610Y0953421D02*
X0055997Y0953421D01*
X0057596Y0955020D02*
X1029012Y0955020D01*
X1027413Y0956618D02*
X0059195Y0956618D01*
X0060793Y0958217D02*
X1025815Y0958217D01*
X0953013Y0915057D02*
X0145405Y0915057D01*
X0148097Y0913458D02*
X0950322Y0913458D01*
X0948723Y0911860D02*
X0149695Y0911860D01*
X0151205Y0910261D02*
X0947213Y0910261D01*
X0946291Y0908663D02*
X0152128Y0908663D01*
X0153051Y0907064D02*
X0945368Y0907064D01*
X0944821Y0905466D02*
X0153597Y0905466D01*
X0154026Y0903867D02*
X0944393Y0903867D01*
X0944016Y0902269D02*
X0154403Y0902269D01*
X0154403Y0900670D02*
X0944016Y0900670D01*
X0944016Y0899072D02*
X0154403Y0899072D01*
X0154239Y0897473D02*
X0944179Y0897473D01*
X0944608Y0895875D02*
X0153811Y0895875D01*
X0153383Y0894276D02*
X0945036Y0894276D01*
X0945830Y0892678D02*
X0152588Y0892678D01*
X0151666Y0891079D02*
X0946753Y0891079D01*
X0947926Y0889481D02*
X0150493Y0889481D01*
X0148894Y0887882D02*
X0949525Y0887882D01*
X0951632Y0886284D02*
X0146786Y0886284D01*
X0143803Y0884685D02*
X0954616Y0884685D01*
X0173822Y0959815D02*
X0062392Y0959815D01*
X0063481Y0961414D02*
X0172224Y0961414D01*
X0170625Y0963012D02*
X0063852Y0963012D01*
X0063852Y0964611D02*
X0169102Y0964611D01*
X0168440Y0966209D02*
X0063852Y0966209D01*
X0063852Y0967808D02*
X0168425Y0967808D01*
X0168425Y0969406D02*
X0063852Y0969406D01*
X0063852Y0971005D02*
X0168425Y0971005D01*
X0168425Y0972603D02*
X0063852Y0972603D01*
X0063852Y0974202D02*
X0168425Y0974202D01*
X0168425Y0975800D02*
X0063852Y0975800D01*
X0063852Y0977399D02*
X0168425Y0977399D01*
X0168425Y0978997D02*
X0063852Y0978997D01*
X0063852Y0980596D02*
X0111654Y0980596D01*
X0111854Y0980480D02*
X0114677Y0979724D01*
X0117600Y0979724D01*
X0120423Y0980480D01*
X0122954Y0981941D01*
X0125020Y0984008D01*
X0126481Y0986539D01*
X0127238Y0989362D01*
X0127238Y0992284D01*
X0126481Y0995107D01*
X0125020Y0997638D01*
X0122954Y0999704D01*
X0120423Y1001166D01*
X0117600Y1001922D01*
X0114677Y1001922D01*
X0111854Y1001166D01*
X0109323Y0999704D01*
X0107257Y0997638D01*
X0105796Y0995107D01*
X0105039Y0992284D01*
X0105039Y0989362D01*
X0105796Y0986539D01*
X0107257Y0984008D01*
X0109323Y0981941D01*
X0111854Y0980480D01*
X0109070Y0982194D02*
X0063852Y0982194D01*
X0063852Y0983793D02*
X0107472Y0983793D01*
X0106458Y0985391D02*
X0063852Y0985391D01*
X0063852Y0986990D02*
X0105675Y0986990D01*
X0105246Y0988588D02*
X0063852Y0988588D01*
X0063852Y0990187D02*
X0105039Y0990187D01*
X0105039Y0991785D02*
X0063852Y0991785D01*
X0063852Y0993384D02*
X0105334Y0993384D01*
X0105762Y0994983D02*
X0063852Y0994983D01*
X0063852Y0996581D02*
X0106647Y0996581D01*
X0107798Y0998180D02*
X0063852Y0998180D01*
X0063852Y0999778D02*
X0109451Y0999778D01*
X0112641Y1001377D02*
X0063852Y1001377D01*
X0063852Y1002975D02*
X0168425Y1002975D01*
X0168425Y1001377D02*
X0119635Y1001377D01*
X0122826Y0999778D02*
X0168425Y0999778D01*
X0168425Y0998180D02*
X0124478Y0998180D01*
X0125630Y0996581D02*
X0168425Y0996581D01*
X0168425Y0994983D02*
X0126515Y0994983D01*
X0126943Y0993384D02*
X0168425Y0993384D01*
X0168425Y0991785D02*
X0127238Y0991785D01*
X0127238Y0990187D02*
X0168425Y0990187D01*
X0168425Y0988588D02*
X0127030Y0988588D01*
X0126602Y0986990D02*
X0168425Y0986990D01*
X0168425Y0985391D02*
X0125819Y0985391D01*
X0124805Y0983793D02*
X0168425Y0983793D01*
X0168425Y0982194D02*
X0123207Y0982194D01*
X0120623Y0980596D02*
X0168425Y0980596D01*
X0168425Y1004574D02*
X0063852Y1004574D01*
X0063852Y1006172D02*
X0168425Y1006172D01*
X0168425Y1007771D02*
X0063852Y1007771D01*
X0063852Y1009369D02*
X0168425Y1009369D01*
X0168425Y1010968D02*
X0063852Y1010968D01*
X0063852Y1012566D02*
X0168425Y1012566D01*
X0168292Y1014165D02*
X0063985Y1014165D01*
M02*
